%TF.GenerationSoftware,KiCad,Pcbnew,9.0.4*%
%TF.CreationDate,2025-11-14T23:52:10-05:00*%
%TF.ProjectId,wetLandCare,7765744c-616e-4644-9361-72652e6b6963,rev?*%
%TF.SameCoordinates,Original*%
%TF.FileFunction,Copper,L2,Bot*%
%TF.FilePolarity,Positive*%
%FSLAX46Y46*%
G04 Gerber Fmt 4.6, Leading zero omitted, Abs format (unit mm)*
G04 Created by KiCad (PCBNEW 9.0.4) date 2025-11-14 23:52:10*
%MOMM*%
%LPD*%
G01*
G04 APERTURE LIST*
G04 Aperture macros list*
%AMRoundRect*
0 Rectangle with rounded corners*
0 $1 Rounding radius*
0 $2 $3 $4 $5 $6 $7 $8 $9 X,Y pos of 4 corners*
0 Add a 4 corners polygon primitive as box body*
4,1,4,$2,$3,$4,$5,$6,$7,$8,$9,$2,$3,0*
0 Add four circle primitives for the rounded corners*
1,1,$1+$1,$2,$3*
1,1,$1+$1,$4,$5*
1,1,$1+$1,$6,$7*
1,1,$1+$1,$8,$9*
0 Add four rect primitives between the rounded corners*
20,1,$1+$1,$2,$3,$4,$5,0*
20,1,$1+$1,$4,$5,$6,$7,0*
20,1,$1+$1,$6,$7,$8,$9,0*
20,1,$1+$1,$8,$9,$2,$3,0*%
G04 Aperture macros list end*
%ADD10C,0.400000*%
%TA.AperFunction,NonConductor*%
%ADD11C,0.400000*%
%TD*%
%TA.AperFunction,ComponentPad*%
%ADD12C,5.600000*%
%TD*%
%TA.AperFunction,ComponentPad*%
%ADD13O,4.000000X2.000000*%
%TD*%
%TA.AperFunction,ComponentPad*%
%ADD14O,2.000000X4.000000*%
%TD*%
%TA.AperFunction,ComponentPad*%
%ADD15R,2.000000X4.500000*%
%TD*%
%TA.AperFunction,ComponentPad*%
%ADD16RoundRect,0.250000X-0.550000X0.550000X-0.550000X-0.550000X0.550000X-0.550000X0.550000X0.550000X0*%
%TD*%
%TA.AperFunction,ComponentPad*%
%ADD17C,1.600000*%
%TD*%
%TA.AperFunction,ComponentPad*%
%ADD18R,1.700000X1.700000*%
%TD*%
%TA.AperFunction,ComponentPad*%
%ADD19C,1.700000*%
%TD*%
%TA.AperFunction,ComponentPad*%
%ADD20C,1.348000*%
%TD*%
%TA.AperFunction,ComponentPad*%
%ADD21O,2.844800X1.422400*%
%TD*%
%TA.AperFunction,ComponentPad*%
%ADD22RoundRect,0.250000X0.550000X0.550000X-0.550000X0.550000X-0.550000X-0.550000X0.550000X-0.550000X0*%
%TD*%
%TA.AperFunction,ComponentPad*%
%ADD23R,3.960000X1.980000*%
%TD*%
%TA.AperFunction,ComponentPad*%
%ADD24O,3.960000X1.980000*%
%TD*%
%TA.AperFunction,ComponentPad*%
%ADD25R,1.980000X3.960000*%
%TD*%
%TA.AperFunction,ComponentPad*%
%ADD26O,1.980000X3.960000*%
%TD*%
%TA.AperFunction,ComponentPad*%
%ADD27RoundRect,0.250000X-0.350000X-0.350000X0.350000X-0.350000X0.350000X0.350000X-0.350000X0.350000X0*%
%TD*%
%TA.AperFunction,ComponentPad*%
%ADD28C,1.200000*%
%TD*%
%TA.AperFunction,ComponentPad*%
%ADD29RoundRect,0.250000X0.350000X-0.350000X0.350000X0.350000X-0.350000X0.350000X-0.350000X-0.350000X0*%
%TD*%
%TA.AperFunction,SMDPad,CuDef*%
%ADD30RoundRect,0.375000X-0.375000X0.625000X-0.375000X-0.625000X0.375000X-0.625000X0.375000X0.625000X0*%
%TD*%
%TA.AperFunction,SMDPad,CuDef*%
%ADD31RoundRect,0.500000X-1.400000X0.500000X-1.400000X-0.500000X1.400000X-0.500000X1.400000X0.500000X0*%
%TD*%
%TA.AperFunction,SMDPad,CuDef*%
%ADD32RoundRect,0.375000X0.375000X-0.625000X0.375000X0.625000X-0.375000X0.625000X-0.375000X-0.625000X0*%
%TD*%
%TA.AperFunction,SMDPad,CuDef*%
%ADD33RoundRect,0.500000X1.400000X-0.500000X1.400000X0.500000X-1.400000X0.500000X-1.400000X-0.500000X0*%
%TD*%
%TA.AperFunction,ViaPad*%
%ADD34C,1.800000*%
%TD*%
%TA.AperFunction,Conductor*%
%ADD35C,0.600000*%
%TD*%
%TA.AperFunction,Conductor*%
%ADD36C,0.900000*%
%TD*%
G04 APERTURE END LIST*
D10*
D11*
X167586190Y-104464438D02*
X167586190Y-105893009D01*
X167586190Y-105893009D02*
X167681429Y-106178723D01*
X167681429Y-106178723D02*
X167871905Y-106369200D01*
X167871905Y-106369200D02*
X168157619Y-106464438D01*
X168157619Y-106464438D02*
X168348095Y-106464438D01*
X166252857Y-104464438D02*
X165871904Y-104464438D01*
X165871904Y-104464438D02*
X165681428Y-104559676D01*
X165681428Y-104559676D02*
X165490952Y-104750152D01*
X165490952Y-104750152D02*
X165395714Y-105131104D01*
X165395714Y-105131104D02*
X165395714Y-105797771D01*
X165395714Y-105797771D02*
X165490952Y-106178723D01*
X165490952Y-106178723D02*
X165681428Y-106369200D01*
X165681428Y-106369200D02*
X165871904Y-106464438D01*
X165871904Y-106464438D02*
X166252857Y-106464438D01*
X166252857Y-106464438D02*
X166443333Y-106369200D01*
X166443333Y-106369200D02*
X166633809Y-106178723D01*
X166633809Y-106178723D02*
X166729047Y-105797771D01*
X166729047Y-105797771D02*
X166729047Y-105131104D01*
X166729047Y-105131104D02*
X166633809Y-104750152D01*
X166633809Y-104750152D02*
X166443333Y-104559676D01*
X166443333Y-104559676D02*
X166252857Y-104464438D01*
X163395714Y-106464438D02*
X164062381Y-105512057D01*
X164538571Y-106464438D02*
X164538571Y-104464438D01*
X164538571Y-104464438D02*
X163776666Y-104464438D01*
X163776666Y-104464438D02*
X163586190Y-104559676D01*
X163586190Y-104559676D02*
X163490952Y-104654914D01*
X163490952Y-104654914D02*
X163395714Y-104845390D01*
X163395714Y-104845390D02*
X163395714Y-105131104D01*
X163395714Y-105131104D02*
X163490952Y-105321580D01*
X163490952Y-105321580D02*
X163586190Y-105416819D01*
X163586190Y-105416819D02*
X163776666Y-105512057D01*
X163776666Y-105512057D02*
X164538571Y-105512057D01*
X162538571Y-106464438D02*
X162538571Y-104464438D01*
X162538571Y-104464438D02*
X162062381Y-104464438D01*
X162062381Y-104464438D02*
X161776666Y-104559676D01*
X161776666Y-104559676D02*
X161586190Y-104750152D01*
X161586190Y-104750152D02*
X161490952Y-104940628D01*
X161490952Y-104940628D02*
X161395714Y-105321580D01*
X161395714Y-105321580D02*
X161395714Y-105607295D01*
X161395714Y-105607295D02*
X161490952Y-105988247D01*
X161490952Y-105988247D02*
X161586190Y-106178723D01*
X161586190Y-106178723D02*
X161776666Y-106369200D01*
X161776666Y-106369200D02*
X162062381Y-106464438D01*
X162062381Y-106464438D02*
X162538571Y-106464438D01*
X160538571Y-104464438D02*
X160538571Y-106083485D01*
X160538571Y-106083485D02*
X160443333Y-106273961D01*
X160443333Y-106273961D02*
X160348095Y-106369200D01*
X160348095Y-106369200D02*
X160157619Y-106464438D01*
X160157619Y-106464438D02*
X159776666Y-106464438D01*
X159776666Y-106464438D02*
X159586190Y-106369200D01*
X159586190Y-106369200D02*
X159490952Y-106273961D01*
X159490952Y-106273961D02*
X159395714Y-106083485D01*
X159395714Y-106083485D02*
X159395714Y-104464438D01*
X158633809Y-104464438D02*
X157300476Y-104464438D01*
X157300476Y-104464438D02*
X158633809Y-106464438D01*
X158633809Y-106464438D02*
X157300476Y-106464438D01*
X156633809Y-105893009D02*
X155681428Y-105893009D01*
X156824285Y-106464438D02*
X156157619Y-104464438D01*
X156157619Y-104464438D02*
X155490952Y-106464438D01*
X153776666Y-106464438D02*
X154919523Y-106464438D01*
X154348095Y-106464438D02*
X154348095Y-104464438D01*
X154348095Y-104464438D02*
X154538571Y-104750152D01*
X154538571Y-104750152D02*
X154729047Y-104940628D01*
X154729047Y-104940628D02*
X154919523Y-105035866D01*
X151871904Y-106464438D02*
X153014761Y-106464438D01*
X152443333Y-106464438D02*
X152443333Y-104464438D01*
X152443333Y-104464438D02*
X152633809Y-104750152D01*
X152633809Y-104750152D02*
X152824285Y-104940628D01*
X152824285Y-104940628D02*
X153014761Y-105035866D01*
X149586190Y-104369200D02*
X151300475Y-106940628D01*
X149014761Y-104654914D02*
X148919523Y-104559676D01*
X148919523Y-104559676D02*
X148729047Y-104464438D01*
X148729047Y-104464438D02*
X148252856Y-104464438D01*
X148252856Y-104464438D02*
X148062380Y-104559676D01*
X148062380Y-104559676D02*
X147967142Y-104654914D01*
X147967142Y-104654914D02*
X147871904Y-104845390D01*
X147871904Y-104845390D02*
X147871904Y-105035866D01*
X147871904Y-105035866D02*
X147967142Y-105321580D01*
X147967142Y-105321580D02*
X149109999Y-106464438D01*
X149109999Y-106464438D02*
X147871904Y-106464438D01*
X146062380Y-104464438D02*
X147014761Y-104464438D01*
X147014761Y-104464438D02*
X147109999Y-105416819D01*
X147109999Y-105416819D02*
X147014761Y-105321580D01*
X147014761Y-105321580D02*
X146824285Y-105226342D01*
X146824285Y-105226342D02*
X146348094Y-105226342D01*
X146348094Y-105226342D02*
X146157618Y-105321580D01*
X146157618Y-105321580D02*
X146062380Y-105416819D01*
X146062380Y-105416819D02*
X145967142Y-105607295D01*
X145967142Y-105607295D02*
X145967142Y-106083485D01*
X145967142Y-106083485D02*
X146062380Y-106273961D01*
X146062380Y-106273961D02*
X146157618Y-106369200D01*
X146157618Y-106369200D02*
X146348094Y-106464438D01*
X146348094Y-106464438D02*
X146824285Y-106464438D01*
X146824285Y-106464438D02*
X147014761Y-106369200D01*
X147014761Y-106369200D02*
X147109999Y-106273961D01*
D10*
D11*
X185935238Y-34904438D02*
X185459048Y-36904438D01*
X185459048Y-36904438D02*
X185078095Y-35475866D01*
X185078095Y-35475866D02*
X184697143Y-36904438D01*
X184697143Y-36904438D02*
X184220953Y-34904438D01*
X182697143Y-36809200D02*
X182887619Y-36904438D01*
X182887619Y-36904438D02*
X183268572Y-36904438D01*
X183268572Y-36904438D02*
X183459048Y-36809200D01*
X183459048Y-36809200D02*
X183554286Y-36618723D01*
X183554286Y-36618723D02*
X183554286Y-35856819D01*
X183554286Y-35856819D02*
X183459048Y-35666342D01*
X183459048Y-35666342D02*
X183268572Y-35571104D01*
X183268572Y-35571104D02*
X182887619Y-35571104D01*
X182887619Y-35571104D02*
X182697143Y-35666342D01*
X182697143Y-35666342D02*
X182601905Y-35856819D01*
X182601905Y-35856819D02*
X182601905Y-36047295D01*
X182601905Y-36047295D02*
X183554286Y-36237771D01*
X182030476Y-35571104D02*
X181268572Y-35571104D01*
X181744762Y-34904438D02*
X181744762Y-36618723D01*
X181744762Y-36618723D02*
X181649524Y-36809200D01*
X181649524Y-36809200D02*
X181459048Y-36904438D01*
X181459048Y-36904438D02*
X181268572Y-36904438D01*
X179649524Y-36904438D02*
X180601905Y-36904438D01*
X180601905Y-36904438D02*
X180601905Y-34904438D01*
X178125714Y-36904438D02*
X178125714Y-35856819D01*
X178125714Y-35856819D02*
X178220952Y-35666342D01*
X178220952Y-35666342D02*
X178411428Y-35571104D01*
X178411428Y-35571104D02*
X178792381Y-35571104D01*
X178792381Y-35571104D02*
X178982857Y-35666342D01*
X178125714Y-36809200D02*
X178316190Y-36904438D01*
X178316190Y-36904438D02*
X178792381Y-36904438D01*
X178792381Y-36904438D02*
X178982857Y-36809200D01*
X178982857Y-36809200D02*
X179078095Y-36618723D01*
X179078095Y-36618723D02*
X179078095Y-36428247D01*
X179078095Y-36428247D02*
X178982857Y-36237771D01*
X178982857Y-36237771D02*
X178792381Y-36142533D01*
X178792381Y-36142533D02*
X178316190Y-36142533D01*
X178316190Y-36142533D02*
X178125714Y-36047295D01*
X177173333Y-35571104D02*
X177173333Y-36904438D01*
X177173333Y-35761580D02*
X177078095Y-35666342D01*
X177078095Y-35666342D02*
X176887619Y-35571104D01*
X176887619Y-35571104D02*
X176601904Y-35571104D01*
X176601904Y-35571104D02*
X176411428Y-35666342D01*
X176411428Y-35666342D02*
X176316190Y-35856819D01*
X176316190Y-35856819D02*
X176316190Y-36904438D01*
X174506666Y-36904438D02*
X174506666Y-34904438D01*
X174506666Y-36809200D02*
X174697142Y-36904438D01*
X174697142Y-36904438D02*
X175078095Y-36904438D01*
X175078095Y-36904438D02*
X175268571Y-36809200D01*
X175268571Y-36809200D02*
X175363809Y-36713961D01*
X175363809Y-36713961D02*
X175459047Y-36523485D01*
X175459047Y-36523485D02*
X175459047Y-35952057D01*
X175459047Y-35952057D02*
X175363809Y-35761580D01*
X175363809Y-35761580D02*
X175268571Y-35666342D01*
X175268571Y-35666342D02*
X175078095Y-35571104D01*
X175078095Y-35571104D02*
X174697142Y-35571104D01*
X174697142Y-35571104D02*
X174506666Y-35666342D01*
X172411428Y-36713961D02*
X172506666Y-36809200D01*
X172506666Y-36809200D02*
X172792380Y-36904438D01*
X172792380Y-36904438D02*
X172982856Y-36904438D01*
X172982856Y-36904438D02*
X173268571Y-36809200D01*
X173268571Y-36809200D02*
X173459047Y-36618723D01*
X173459047Y-36618723D02*
X173554285Y-36428247D01*
X173554285Y-36428247D02*
X173649523Y-36047295D01*
X173649523Y-36047295D02*
X173649523Y-35761580D01*
X173649523Y-35761580D02*
X173554285Y-35380628D01*
X173554285Y-35380628D02*
X173459047Y-35190152D01*
X173459047Y-35190152D02*
X173268571Y-34999676D01*
X173268571Y-34999676D02*
X172982856Y-34904438D01*
X172982856Y-34904438D02*
X172792380Y-34904438D01*
X172792380Y-34904438D02*
X172506666Y-34999676D01*
X172506666Y-34999676D02*
X172411428Y-35094914D01*
X170697142Y-36904438D02*
X170697142Y-35856819D01*
X170697142Y-35856819D02*
X170792380Y-35666342D01*
X170792380Y-35666342D02*
X170982856Y-35571104D01*
X170982856Y-35571104D02*
X171363809Y-35571104D01*
X171363809Y-35571104D02*
X171554285Y-35666342D01*
X170697142Y-36809200D02*
X170887618Y-36904438D01*
X170887618Y-36904438D02*
X171363809Y-36904438D01*
X171363809Y-36904438D02*
X171554285Y-36809200D01*
X171554285Y-36809200D02*
X171649523Y-36618723D01*
X171649523Y-36618723D02*
X171649523Y-36428247D01*
X171649523Y-36428247D02*
X171554285Y-36237771D01*
X171554285Y-36237771D02*
X171363809Y-36142533D01*
X171363809Y-36142533D02*
X170887618Y-36142533D01*
X170887618Y-36142533D02*
X170697142Y-36047295D01*
X169744761Y-36904438D02*
X169744761Y-35571104D01*
X169744761Y-35952057D02*
X169649523Y-35761580D01*
X169649523Y-35761580D02*
X169554285Y-35666342D01*
X169554285Y-35666342D02*
X169363809Y-35571104D01*
X169363809Y-35571104D02*
X169173332Y-35571104D01*
X167744761Y-36809200D02*
X167935237Y-36904438D01*
X167935237Y-36904438D02*
X168316190Y-36904438D01*
X168316190Y-36904438D02*
X168506666Y-36809200D01*
X168506666Y-36809200D02*
X168601904Y-36618723D01*
X168601904Y-36618723D02*
X168601904Y-35856819D01*
X168601904Y-35856819D02*
X168506666Y-35666342D01*
X168506666Y-35666342D02*
X168316190Y-35571104D01*
X168316190Y-35571104D02*
X167935237Y-35571104D01*
X167935237Y-35571104D02*
X167744761Y-35666342D01*
X167744761Y-35666342D02*
X167649523Y-35856819D01*
X167649523Y-35856819D02*
X167649523Y-36047295D01*
X167649523Y-36047295D02*
X168601904Y-36237771D01*
X165459046Y-35571104D02*
X164982856Y-36904438D01*
X164982856Y-36904438D02*
X164506665Y-35571104D01*
X162697141Y-36904438D02*
X163839998Y-36904438D01*
X163268570Y-36904438D02*
X163268570Y-34904438D01*
X163268570Y-34904438D02*
X163459046Y-35190152D01*
X163459046Y-35190152D02*
X163649522Y-35380628D01*
X163649522Y-35380628D02*
X163839998Y-35475866D01*
X161839998Y-36713961D02*
X161744760Y-36809200D01*
X161744760Y-36809200D02*
X161839998Y-36904438D01*
X161839998Y-36904438D02*
X161935236Y-36809200D01*
X161935236Y-36809200D02*
X161839998Y-36713961D01*
X161839998Y-36713961D02*
X161839998Y-36904438D01*
X160506665Y-34904438D02*
X160316188Y-34904438D01*
X160316188Y-34904438D02*
X160125712Y-34999676D01*
X160125712Y-34999676D02*
X160030474Y-35094914D01*
X160030474Y-35094914D02*
X159935236Y-35285390D01*
X159935236Y-35285390D02*
X159839998Y-35666342D01*
X159839998Y-35666342D02*
X159839998Y-36142533D01*
X159839998Y-36142533D02*
X159935236Y-36523485D01*
X159935236Y-36523485D02*
X160030474Y-36713961D01*
X160030474Y-36713961D02*
X160125712Y-36809200D01*
X160125712Y-36809200D02*
X160316188Y-36904438D01*
X160316188Y-36904438D02*
X160506665Y-36904438D01*
X160506665Y-36904438D02*
X160697141Y-36809200D01*
X160697141Y-36809200D02*
X160792379Y-36713961D01*
X160792379Y-36713961D02*
X160887617Y-36523485D01*
X160887617Y-36523485D02*
X160982855Y-36142533D01*
X160982855Y-36142533D02*
X160982855Y-35666342D01*
X160982855Y-35666342D02*
X160887617Y-35285390D01*
X160887617Y-35285390D02*
X160792379Y-35094914D01*
X160792379Y-35094914D02*
X160697141Y-34999676D01*
X160697141Y-34999676D02*
X160506665Y-34904438D01*
D12*
%TO.P,H1,1*%
%TO.N,N/C*%
X243500000Y-40500000D03*
%TD*%
%TO.P,H2,1*%
%TO.N,N/C*%
X243000000Y-100500000D03*
%TD*%
%TO.P,H3,1*%
%TO.N,N/C*%
X151000000Y-40500000D03*
%TD*%
%TO.P,H4,1*%
%TO.N,N/C*%
X151000000Y-100500000D03*
%TD*%
D13*
%TO.P,J11,3*%
%TO.N,N/C*%
X157190000Y-92700000D03*
D14*
%TO.P,J11,2*%
%TO.N,GND*%
X154190000Y-88000000D03*
D15*
%TO.P,J11,1*%
%TO.N,VCC*%
X160390000Y-88000000D03*
%TD*%
D16*
%TO.P,C1,1*%
%TO.N,VCC*%
X169990000Y-94167349D03*
D17*
%TO.P,C1,2*%
%TO.N,GND*%
X169990000Y-97967349D03*
%TD*%
%TO.P,R12,1*%
%TO.N,/PWM_MR*%
X228590000Y-64040000D03*
%TO.P,R12,2*%
%TO.N,Net-(J12-Pin_3)*%
X236210000Y-64040000D03*
%TD*%
%TO.P,R1,1*%
%TO.N,/DI1_RL*%
X206890000Y-51520000D03*
%TO.P,R1,2*%
%TO.N,Net-(U4-1A)*%
X199270000Y-51520000D03*
%TD*%
D18*
%TO.P,J12,1,Pin_1*%
%TO.N,Net-(J12-Pin_1)*%
X242170000Y-67090000D03*
D19*
%TO.P,J12,2,Pin_2*%
%TO.N,Net-(J12-Pin_2)*%
X242170000Y-64550000D03*
%TO.P,J12,3,Pin_3*%
%TO.N,Net-(J12-Pin_3)*%
X242170000Y-62010000D03*
%TD*%
D17*
%TO.P,R8,1*%
%TO.N,/DI2_ML*%
X228590000Y-57990000D03*
%TO.P,R8,2*%
%TO.N,Net-(J1-Pin_2)*%
X236210000Y-57990000D03*
%TD*%
D20*
%TO.P,U5,0,GPIO0*%
%TO.N,/PWM_MR*%
X225480000Y-62530000D03*
%TO.P,U5,1,GPIO1*%
%TO.N,/DI1_ML*%
X225480000Y-59990000D03*
%TO.P,U5,2,GPIO2*%
%TO.N,/DI2_ML*%
X225480000Y-57450000D03*
%TO.P,U5,3,GPIO3*%
%TO.N,/PWM_ML*%
X225480000Y-54910000D03*
%TO.P,U5,3.3,3V3*%
%TO.N,Net-(J2-Pin_1)*%
X225480000Y-49830000D03*
%TO.P,U5,4,GPIO4*%
%TO.N,/PWM_RL*%
X225480000Y-52370000D03*
%TO.P,U5,5,GPIO5*%
%TO.N,/BAT_LVL_SENS*%
X210240000Y-44750000D03*
%TO.P,U5,5V,5V*%
%TO.N,/5V_MCU*%
X225480000Y-44750000D03*
%TO.P,U5,6,GPIO6*%
%TO.N,/PWM_RR*%
X210240000Y-47290000D03*
%TO.P,U5,7,GPIO7*%
%TO.N,/DI1_RL*%
X210240000Y-49830000D03*
%TO.P,U5,8,GPIO8*%
%TO.N,/DI2_RL*%
X210240000Y-52370000D03*
%TO.P,U5,9,GPIO9*%
%TO.N,/DI2_RR*%
X210240000Y-54910000D03*
%TO.P,U5,10,GPIO10*%
%TO.N,/DI1_RR*%
X210240000Y-57450000D03*
%TO.P,U5,20,GPIO20*%
%TO.N,/DI1_MR*%
X210240000Y-59990000D03*
%TO.P,U5,21,GPIO21*%
%TO.N,/DI2_MR*%
X210240000Y-62530000D03*
%TO.P,U5,G,GND*%
%TO.N,GND*%
X225480000Y-47290000D03*
%TD*%
D17*
%TO.P,R4,1*%
%TO.N,/DI1_RR*%
X206880000Y-60580000D03*
%TO.P,R4,2*%
%TO.N,Net-(U4-3A)*%
X199260000Y-60580000D03*
%TD*%
D21*
%TO.P,U2,P$1,5V*%
%TO.N,/5V_MCU*%
X157070000Y-44220000D03*
%TO.P,U2,P$2,GND*%
%TO.N,GND*%
X157070000Y-46760000D03*
%TO.P,U2,P$3,IO12*%
%TO.N,Net-(J6-Pin_6)*%
X157070000Y-49300000D03*
%TO.P,U2,P$4,IO13*%
%TO.N,Net-(J6-Pin_5)*%
X157070000Y-51840000D03*
%TO.P,U2,P$5,IO15*%
%TO.N,Net-(J6-Pin_4)*%
X157070000Y-54380000D03*
%TO.P,U2,P$6,IO14*%
%TO.N,Net-(J6-Pin_3)*%
X157070000Y-56920000D03*
%TO.P,U2,P$7,IO2*%
%TO.N,Net-(J6-Pin_2)*%
X157070000Y-59460000D03*
%TO.P,U2,P$8,IO4*%
%TO.N,Net-(J6-Pin_1)*%
X157070000Y-62000000D03*
%TO.P,U2,P$9,.GND*%
%TO.N,GND*%
X179930000Y-62000000D03*
%TO.P,U2,P$10,IO1/U0T*%
%TO.N,Net-(J5-Pin_3)*%
X179930000Y-59460000D03*
%TO.P,U2,P$11,IO3/U0R*%
%TO.N,Net-(J5-Pin_2)*%
X179930000Y-56920000D03*
%TO.P,U2,P$12,3V3.*%
%TO.N,Net-(J5-Pin_1)*%
X179930000Y-54380000D03*
%TO.P,U2,P$13,GND.*%
%TO.N,GND*%
X179930000Y-51840000D03*
%TO.P,U2,P$14,IO0*%
%TO.N,Net-(J4-Pin_3)*%
X179930000Y-49300000D03*
%TO.P,U2,P$15,IO16*%
%TO.N,Net-(J4-Pin_2)*%
X179930000Y-46760000D03*
%TO.P,U2,P$16,3V3*%
%TO.N,Net-(J4-Pin_1)*%
X179930000Y-44220000D03*
%TD*%
D17*
%TO.P,R3,1*%
%TO.N,/DI2_RR*%
X206890000Y-57580000D03*
%TO.P,R3,2*%
%TO.N,Net-(U4-4A)*%
X199270000Y-57580000D03*
%TD*%
%TO.P,R6,1*%
%TO.N,/PWM_RR*%
X206880000Y-48480000D03*
%TO.P,R6,2*%
%TO.N,Net-(U4-EN3\u002C4)*%
X199260000Y-48480000D03*
%TD*%
D22*
%TO.P,U4,1,EN1\u002C2*%
%TO.N,Net-(U4-EN1\u002C2)*%
X214745000Y-89530000D03*
D17*
%TO.P,U4,2,1A*%
%TO.N,Net-(U4-1A)*%
X214745000Y-86990000D03*
%TO.P,U4,3,1Y*%
%TO.N,Net-(J7-Pin_2)*%
X214745000Y-84450000D03*
%TO.P,U4,4,GND*%
%TO.N,GND*%
X214745000Y-81910000D03*
%TO.P,U4,5,GND*%
X214745000Y-79370000D03*
%TO.P,U4,6,2Y*%
%TO.N,Net-(J7-Pin_1)*%
X214745000Y-76830000D03*
%TO.P,U4,7,2A*%
%TO.N,Net-(U4-2A)*%
X214745000Y-74290000D03*
%TO.P,U4,8,VCC2*%
%TO.N,/5V_DRIVERS*%
X214745000Y-71750000D03*
%TO.P,U4,9,EN3\u002C4*%
%TO.N,Net-(U4-EN3\u002C4)*%
X207125000Y-71750000D03*
%TO.P,U4,10,3A*%
%TO.N,Net-(U4-3A)*%
X207125000Y-74290000D03*
%TO.P,U4,11,3Y*%
%TO.N,Net-(J8-Pin_2)*%
X207125000Y-76830000D03*
%TO.P,U4,12,GND*%
%TO.N,GND*%
X207125000Y-79370000D03*
%TO.P,U4,13,GND*%
X207125000Y-81910000D03*
%TO.P,U4,14,4Y*%
%TO.N,Net-(J8-Pin_1)*%
X207125000Y-84450000D03*
%TO.P,U4,15,4A*%
%TO.N,Net-(U4-4A)*%
X207125000Y-86990000D03*
%TO.P,U4,16,VCC1*%
%TO.N,VCC*%
X207125000Y-89530000D03*
%TD*%
%TO.P,R7,1*%
%TO.N,/DI1_ML*%
X228590000Y-60990000D03*
%TO.P,R7,2*%
%TO.N,Net-(J1-Pin_1)*%
X236210000Y-60990000D03*
%TD*%
%TO.P,R10,1*%
%TO.N,/DI1_MR*%
X206890000Y-63610000D03*
%TO.P,R10,2*%
%TO.N,Net-(J12-Pin_1)*%
X199270000Y-63610000D03*
%TD*%
D18*
%TO.P,J4,1,Pin_1*%
%TO.N,Net-(J4-Pin_1)*%
X184885000Y-44195000D03*
D19*
%TO.P,J4,2,Pin_2*%
%TO.N,Net-(J4-Pin_2)*%
X184885000Y-46735000D03*
%TO.P,J4,3,Pin_3*%
%TO.N,Net-(J4-Pin_3)*%
X184885000Y-49275000D03*
%TD*%
D17*
%TO.P,R9,1*%
%TO.N,/PWM_ML*%
X228610000Y-54960000D03*
%TO.P,R9,2*%
%TO.N,Net-(J1-Pin_3)*%
X236230000Y-54960000D03*
%TD*%
D18*
%TO.P,J5,1,Pin_1*%
%TO.N,Net-(J5-Pin_1)*%
X185000000Y-54460000D03*
D19*
%TO.P,J5,2,Pin_2*%
%TO.N,Net-(J5-Pin_2)*%
X185000000Y-57000000D03*
%TO.P,J5,3,Pin_3*%
%TO.N,Net-(J5-Pin_3)*%
X185000000Y-59540000D03*
%TD*%
D23*
%TO.P,J3,1,Pin_1*%
%TO.N,/5V_DRIVERS*%
X239100000Y-84870000D03*
D24*
%TO.P,J3,2,Pin_2*%
%TO.N,GND*%
X239100000Y-79870000D03*
%TO.P,J3,3,Pin_3*%
%TO.N,VCC*%
X239100000Y-74870000D03*
%TD*%
D18*
%TO.P,J6,1,Pin_1*%
%TO.N,Net-(J6-Pin_1)*%
X152000000Y-62040000D03*
D19*
%TO.P,J6,2,Pin_2*%
%TO.N,Net-(J6-Pin_2)*%
X152000000Y-59500000D03*
%TO.P,J6,3,Pin_3*%
%TO.N,Net-(J6-Pin_3)*%
X152000000Y-56960000D03*
%TO.P,J6,4,Pin_4*%
%TO.N,Net-(J6-Pin_4)*%
X152000000Y-54420000D03*
%TO.P,J6,5,Pin_5*%
%TO.N,Net-(J6-Pin_5)*%
X152000000Y-51880000D03*
%TO.P,J6,6,Pin_6*%
%TO.N,Net-(J6-Pin_6)*%
X152000000Y-49340000D03*
%TD*%
D17*
%TO.P,R14,1*%
%TO.N,/BAT_LVL_SENS*%
X206890000Y-45460000D03*
%TO.P,R14,2*%
%TO.N,GND*%
X199270000Y-45460000D03*
%TD*%
D25*
%TO.P,J7,1,Pin_1*%
%TO.N,Net-(J7-Pin_1)*%
X217985000Y-97705000D03*
D26*
%TO.P,J7,2,Pin_2*%
%TO.N,Net-(J7-Pin_2)*%
X222985000Y-97705000D03*
%TD*%
D25*
%TO.P,J8,1,Pin_1*%
%TO.N,Net-(J8-Pin_1)*%
X206785000Y-97715000D03*
D26*
%TO.P,J8,2,Pin_2*%
%TO.N,Net-(J8-Pin_2)*%
X211785000Y-97715000D03*
%TD*%
D17*
%TO.P,R2,1*%
%TO.N,/DI2_RL*%
X206870000Y-54530000D03*
%TO.P,R2,2*%
%TO.N,Net-(U4-2A)*%
X199250000Y-54530000D03*
%TD*%
%TO.P,R5,1*%
%TO.N,/PWM_RL*%
X228610000Y-51950000D03*
%TO.P,R5,2*%
%TO.N,Net-(U4-EN1\u002C2)*%
X236230000Y-51950000D03*
%TD*%
%TO.P,R11,1*%
%TO.N,/DI2_MR*%
X206890000Y-66630000D03*
%TO.P,R11,2*%
%TO.N,Net-(J12-Pin_2)*%
X199270000Y-66630000D03*
%TD*%
D27*
%TO.P,C2,1*%
%TO.N,/5V_MCU*%
X185167401Y-77980000D03*
D28*
%TO.P,C2,2*%
%TO.N,GND*%
X187167401Y-77980000D03*
%TD*%
D29*
%TO.P,C4,1*%
%TO.N,/5V_DRIVERS*%
X181330000Y-99350000D03*
D28*
%TO.P,C4,2*%
%TO.N,GND*%
X181330000Y-97350000D03*
%TD*%
D18*
%TO.P,J2,1,Pin_1*%
%TO.N,Net-(J2-Pin_1)*%
X229320000Y-47880000D03*
%TD*%
%TO.P,J1,1,Pin_1*%
%TO.N,Net-(J1-Pin_1)*%
X242170000Y-54920000D03*
D19*
%TO.P,J1,2,Pin_2*%
%TO.N,Net-(J1-Pin_2)*%
X242170000Y-52380000D03*
%TO.P,J1,3,Pin_3*%
%TO.N,Net-(J1-Pin_3)*%
X242170000Y-49840000D03*
%TD*%
D17*
%TO.P,R13,1*%
%TO.N,VCC*%
X199270000Y-42420000D03*
%TO.P,R13,2*%
%TO.N,/BAT_LVL_SENS*%
X206890000Y-42420000D03*
%TD*%
D30*
%TO.P,U6,1,GND*%
%TO.N,GND*%
X187017500Y-94680000D03*
%TO.P,U6,2,VO*%
%TO.N,/5V_DRIVERS*%
X189317500Y-94680000D03*
D31*
X189317500Y-100980000D03*
D30*
%TO.P,U6,3,VI*%
%TO.N,VCC*%
X191617500Y-94680000D03*
%TD*%
D32*
%TO.P,U3,1,GND*%
%TO.N,GND*%
X192100000Y-89090000D03*
%TO.P,U3,2,VO*%
%TO.N,/5V_MCU*%
X189800000Y-89090000D03*
D33*
X189800000Y-82790000D03*
D32*
%TO.P,U3,3,VI*%
%TO.N,VCC*%
X187500000Y-89090000D03*
%TD*%
D34*
%TO.N,Net-(U4-1A)*%
X230440000Y-86130000D03*
%TO.N,Net-(J7-Pin_2)*%
X218390000Y-91430000D03*
X218390000Y-84440000D03*
%TO.N,GND*%
X187330000Y-68760000D03*
X194530000Y-68740000D03*
X234900000Y-104790000D03*
X235160000Y-87270000D03*
%TO.N,/5V_DRIVERS*%
X236070000Y-67770000D03*
X229600000Y-67770000D03*
%TO.N,GND*%
X192796921Y-46671062D03*
X192690000Y-35300000D03*
%TO.N,Net-(J12-Pin_2)*%
X196850000Y-40110000D03*
X196810000Y-50720000D03*
%TO.N,/5V_MCU*%
X229130000Y-44440000D03*
X229130000Y-35088000D03*
%TO.N,Net-(U4-4A)*%
X202520000Y-73820000D03*
%TO.N,GND*%
X238390000Y-70180000D03*
X244940000Y-70080000D03*
X182860000Y-74610000D03*
X218700000Y-74390000D03*
X187260000Y-74560000D03*
X218770000Y-69750000D03*
X205230000Y-80510000D03*
X193340000Y-80440000D03*
%TO.N,Net-(U4-3A)*%
X204810000Y-76160000D03*
X199680000Y-76310000D03*
X199770000Y-69530000D03*
X199720000Y-73860000D03*
%TO.N,Net-(U4-1A)*%
X230445000Y-77235000D03*
%TO.N,Net-(J12-Pin_1)*%
X197090000Y-63600000D03*
X187810000Y-63560000D03*
%TO.N,Net-(U4-4A)*%
X202600000Y-69610000D03*
%TD*%
D35*
%TO.N,Net-(U4-1A)*%
X229580000Y-86990000D02*
X230440000Y-86130000D01*
X220580000Y-86990000D02*
X229580000Y-86990000D01*
X220580000Y-86990000D02*
X214745000Y-86990000D01*
%TO.N,Net-(J7-Pin_2)*%
X220685000Y-91430000D02*
X222985000Y-93730000D01*
X218390000Y-91430000D02*
X220685000Y-91430000D01*
X218380000Y-84450000D02*
X218390000Y-84440000D01*
X214745000Y-84450000D02*
X218380000Y-84450000D01*
X222985000Y-93730000D02*
X222985000Y-97705000D01*
%TO.N,Net-(U4-4A)*%
X202600000Y-58340000D02*
X202600000Y-69610000D01*
X201840000Y-57580000D02*
X202600000Y-58340000D01*
X202520000Y-83060000D02*
X202940000Y-83480000D01*
X202520000Y-73820000D02*
X202520000Y-83060000D01*
X202520000Y-73820000D02*
X202948000Y-73820000D01*
X201840000Y-57580000D02*
X199270000Y-57580000D01*
X202600000Y-69610000D02*
X202960000Y-69610000D01*
%TO.N,Net-(U4-3A)*%
X199720000Y-76270000D02*
X199720000Y-73860000D01*
X199680000Y-76310000D02*
X199720000Y-76270000D01*
X201190000Y-68110000D02*
X201190000Y-62510000D01*
X199770000Y-69530000D02*
X201190000Y-68110000D01*
X201190000Y-62510000D02*
X199260000Y-60580000D01*
%TO.N,/5V_DRIVERS*%
X191627500Y-103290000D02*
X189317500Y-100980000D01*
X232890000Y-103290000D02*
X191627500Y-103290000D01*
X246750000Y-89430000D02*
X232890000Y-103290000D01*
X239148000Y-67770000D02*
X246750000Y-75372000D01*
X236070000Y-67770000D02*
X239148000Y-67770000D01*
X246750000Y-75372000D02*
X246750000Y-89430000D01*
D36*
%TO.N,VCC*%
X190150000Y-71220000D02*
X197430000Y-78500000D01*
X190150000Y-46006394D02*
X190150000Y-71220000D01*
X197430000Y-87340000D02*
X201940000Y-91850000D01*
X193736394Y-42420000D02*
X190150000Y-46006394D01*
X199270000Y-42420000D02*
X193736394Y-42420000D01*
X199360000Y-91850000D02*
X201940000Y-91850000D01*
X197430000Y-78500000D02*
X197430000Y-87340000D01*
X205993630Y-89530000D02*
X207125000Y-89530000D01*
D35*
%TO.N,Net-(U4-EN3\u002C4)*%
X193620000Y-71760000D02*
X196020000Y-71760000D01*
X196020000Y-71760000D02*
X196030000Y-71750000D01*
X196030000Y-71750000D02*
X207125000Y-71750000D01*
X191950000Y-50180000D02*
X191950000Y-70090000D01*
X199260000Y-48480000D02*
X193650000Y-48480000D01*
X193650000Y-48480000D02*
X191950000Y-50180000D01*
X191950000Y-70090000D02*
X193620000Y-71760000D01*
%TO.N,Net-(J12-Pin_2)*%
X196810000Y-52050000D02*
X196810000Y-50720000D01*
X194620000Y-54240000D02*
X196810000Y-52050000D01*
X195630000Y-66630000D02*
X194620000Y-65620000D01*
X194620000Y-65620000D02*
X194620000Y-54240000D01*
X199270000Y-66630000D02*
X195630000Y-66630000D01*
%TO.N,/5V_DRIVERS*%
X181700000Y-100663838D02*
X189001338Y-100663838D01*
X181330000Y-100293838D02*
X181700000Y-100663838D01*
X181330000Y-99350000D02*
X181330000Y-100293838D01*
X189001338Y-100663838D02*
X189317500Y-100980000D01*
X239100000Y-84870000D02*
X237560000Y-84870000D01*
X224770000Y-71750000D02*
X225620000Y-71750000D01*
X225620000Y-71750000D02*
X229600000Y-67770000D01*
%TO.N,Net-(U4-1A)*%
X232400000Y-75280000D02*
X230445000Y-77235000D01*
X232400000Y-43730000D02*
X232400000Y-75280000D01*
X229520000Y-40090000D02*
X232780000Y-43350000D01*
X204430000Y-49890000D02*
X204430000Y-41770000D01*
X204430000Y-41770000D02*
X206110000Y-40090000D01*
X206110000Y-40090000D02*
X229520000Y-40090000D01*
X202740000Y-51580000D02*
X204430000Y-49890000D01*
X202680000Y-51520000D02*
X202740000Y-51580000D01*
X232780000Y-43350000D02*
X232400000Y-43730000D01*
X199270000Y-51520000D02*
X202680000Y-51520000D01*
%TO.N,/5V_DRIVERS*%
X223350000Y-71750000D02*
X224770000Y-71750000D01*
%TO.N,Net-(U4-EN1\u002C2)*%
X241460000Y-82280000D02*
X242760000Y-83580000D01*
X242760000Y-87930000D02*
X241160000Y-89530000D01*
X236820000Y-82280000D02*
X241460000Y-82280000D01*
X234070000Y-79530000D02*
X236820000Y-82280000D01*
X234070000Y-54110000D02*
X234070000Y-79530000D01*
X242760000Y-83580000D02*
X242760000Y-87930000D01*
X236230000Y-51950000D02*
X234070000Y-54110000D01*
X241160000Y-89530000D02*
X214745000Y-89530000D01*
%TO.N,Net-(J12-Pin_3)*%
X236210000Y-64040000D02*
X238090000Y-64040000D01*
X238090000Y-64040000D02*
X240120000Y-62010000D01*
X240120000Y-62010000D02*
X242170000Y-62010000D01*
%TO.N,Net-(U4-2A)*%
X201600000Y-54688000D02*
X204791000Y-57879000D01*
X201600000Y-54530000D02*
X201600000Y-54688000D01*
X204791000Y-67831000D02*
X206200000Y-69240000D01*
X206200000Y-69240000D02*
X209160000Y-69240000D01*
X214210000Y-74290000D02*
X214745000Y-74290000D01*
X204791000Y-57879000D02*
X204791000Y-67831000D01*
X209160000Y-69240000D02*
X214210000Y-74290000D01*
X199250000Y-54530000D02*
X201600000Y-54530000D01*
%TO.N,/DI2_MR*%
X210240000Y-64830000D02*
X210240000Y-62530000D01*
X208440000Y-66630000D02*
X210240000Y-64830000D01*
X206890000Y-66630000D02*
X208440000Y-66630000D01*
%TO.N,/DI1_MR*%
X206890000Y-63340000D02*
X206890000Y-63610000D01*
X210240000Y-59990000D02*
X206890000Y-63340000D01*
%TO.N,/DI2_RL*%
X207580000Y-54530000D02*
X209740000Y-52370000D01*
X206870000Y-54530000D02*
X207580000Y-54530000D01*
X209740000Y-52370000D02*
X210240000Y-52370000D01*
%TO.N,/DI1_RL*%
X207850000Y-51520000D02*
X206890000Y-51520000D01*
X209540000Y-49830000D02*
X207850000Y-51520000D01*
%TO.N,/5V_MCU*%
X159820000Y-44220000D02*
X157070000Y-44220000D01*
X161820000Y-42220000D02*
X159820000Y-44220000D01*
X188780000Y-42220000D02*
X161820000Y-42220000D01*
X229130000Y-35088000D02*
X195912000Y-35088000D01*
X195912000Y-35088000D02*
X188780000Y-42220000D01*
%TO.N,Net-(J12-Pin_2)*%
X198371000Y-38589000D02*
X196850000Y-40110000D01*
X230141734Y-38589000D02*
X198371000Y-38589000D01*
X234281000Y-42728265D02*
X230141734Y-38589000D01*
X234281000Y-46541000D02*
X234281000Y-42728265D01*
X242860000Y-47000000D02*
X234740000Y-47000000D01*
X244121000Y-63801081D02*
X244121000Y-48261000D01*
X234740000Y-47000000D02*
X234281000Y-46541000D01*
X243372081Y-64550000D02*
X244121000Y-63801081D01*
X242170000Y-64550000D02*
X243372081Y-64550000D01*
X244121000Y-48261000D02*
X242860000Y-47000000D01*
%TO.N,/5V_MCU*%
X225790000Y-44440000D02*
X225480000Y-44750000D01*
X229130000Y-44440000D02*
X225790000Y-44440000D01*
%TO.N,Net-(J12-Pin_1)*%
X243880000Y-67090000D02*
X242170000Y-67090000D01*
X245622000Y-65348000D02*
X243880000Y-67090000D01*
X245622000Y-47639266D02*
X245622000Y-65348000D01*
X243481735Y-45499000D02*
X245622000Y-47639266D01*
X236591000Y-45499000D02*
X243481735Y-45499000D01*
X235782000Y-44690000D02*
X236591000Y-45499000D01*
X235782000Y-42106531D02*
X235782000Y-44690000D01*
X196521396Y-37088000D02*
X230763468Y-37088000D01*
X230763468Y-37088000D02*
X234577735Y-40902265D01*
X187810000Y-45799396D02*
X196521396Y-37088000D01*
X187810000Y-63560000D02*
X187810000Y-45799396D01*
X234577735Y-40902265D02*
X235782000Y-42106531D01*
%TO.N,Net-(U4-4A)*%
X203159000Y-83759000D02*
X206390000Y-86990000D01*
X206390000Y-86990000D02*
X207125000Y-86990000D01*
%TO.N,Net-(J8-Pin_2)*%
X211309000Y-97239000D02*
X211785000Y-97715000D01*
%TO.N,Net-(J7-Pin_1)*%
X215705000Y-93775000D02*
X216830000Y-93775000D01*
X212810000Y-90880000D02*
X215705000Y-93775000D01*
X212810000Y-77633630D02*
X212810000Y-90880000D01*
X213613630Y-76830000D02*
X212810000Y-77633630D01*
D36*
%TO.N,VCC*%
X244755657Y-88877345D02*
X244755657Y-80525657D01*
X244755657Y-80525657D02*
X239100000Y-74870000D01*
X200340000Y-101160000D02*
X232473002Y-101160000D01*
X199360000Y-100180000D02*
X200340000Y-101160000D01*
X232473002Y-101160000D02*
X244755657Y-88877345D01*
X199360000Y-91850000D02*
X199360000Y-100180000D01*
D35*
%TO.N,/5V_MCU*%
X185167401Y-81607401D02*
X186350000Y-82790000D01*
X185167401Y-77980000D02*
X185167401Y-81607401D01*
D36*
%TO.N,VCC*%
X187500000Y-91810000D02*
X187540000Y-91850000D01*
X187500000Y-89090000D02*
X187500000Y-91810000D01*
X187540000Y-91850000D02*
X189260000Y-91850000D01*
D35*
%TO.N,/5V_MCU*%
X161970000Y-49450000D02*
X185167401Y-72647401D01*
X185167401Y-72647401D02*
X185167401Y-77980000D01*
X161970000Y-46360000D02*
X161970000Y-49450000D01*
X159830000Y-44220000D02*
X161970000Y-46360000D01*
X157070000Y-44220000D02*
X159830000Y-44220000D01*
%TO.N,Net-(J7-Pin_1)*%
X217985000Y-94930000D02*
X217985000Y-97705000D01*
X216830000Y-93775000D02*
X217985000Y-94930000D01*
X214745000Y-76830000D02*
X213613630Y-76830000D01*
%TO.N,GND*%
X187167401Y-74652599D02*
X187260000Y-74560000D01*
X207125000Y-79370000D02*
X206370000Y-79370000D01*
%TO.N,/5V_MCU*%
X185167401Y-77980000D02*
X185167401Y-78082599D01*
X189800000Y-82790000D02*
X189800000Y-89090000D01*
X225480000Y-44750000D02*
X225480000Y-43930000D01*
X186350000Y-82790000D02*
X189800000Y-82790000D01*
X185167401Y-78082599D02*
X185100000Y-78150000D01*
D36*
%TO.N,VCC*%
X191617500Y-94680000D02*
X191817500Y-94880000D01*
X204030000Y-91850000D02*
X204030000Y-90670000D01*
X169990000Y-94167349D02*
X182082651Y-94167349D01*
X191617500Y-93402500D02*
X193170000Y-91850000D01*
X163822650Y-88000000D02*
X164436325Y-88613675D01*
X182082651Y-94167349D02*
X184400000Y-91850000D01*
X164436325Y-88613675D02*
X169990000Y-94167349D01*
X201940000Y-91850000D02*
X204030000Y-91850000D01*
X184400000Y-91850000D02*
X187540000Y-91850000D01*
X205170000Y-89530000D02*
X207125000Y-89530000D01*
X204030000Y-90670000D02*
X205170000Y-89530000D01*
X193170000Y-91850000D02*
X199360000Y-91850000D01*
X189260000Y-91850000D02*
X193170000Y-91850000D01*
X191617500Y-94680000D02*
X191617500Y-93402500D01*
X160390000Y-88000000D02*
X163822650Y-88000000D01*
D35*
%TO.N,/5V_DRIVERS*%
X189200100Y-100862600D02*
X189317500Y-100980000D01*
X214745000Y-71750000D02*
X221700000Y-71750000D01*
X189317500Y-94680000D02*
X189317500Y-100980000D01*
X221700000Y-71750000D02*
X234820000Y-84870000D01*
X221700000Y-71750000D02*
X223350000Y-71750000D01*
X234820000Y-84870000D02*
X239100000Y-84870000D01*
%TO.N,Net-(U4-3A)*%
X204970000Y-74670000D02*
X205350000Y-74290000D01*
X204970000Y-76000000D02*
X204970000Y-74670000D01*
X204810000Y-76160000D02*
X204970000Y-76000000D01*
X205350000Y-74290000D02*
X207125000Y-74290000D01*
%TO.N,Net-(J1-Pin_2)*%
X240160000Y-56770000D02*
X238940000Y-57990000D01*
X238940000Y-57990000D02*
X236210000Y-57990000D01*
X242170000Y-52380000D02*
X240967919Y-52380000D01*
X240967919Y-52380000D02*
X240160000Y-53187919D01*
X240160000Y-53187919D02*
X240160000Y-56770000D01*
%TO.N,Net-(J1-Pin_3)*%
X236230000Y-54960000D02*
X237150000Y-54960000D01*
X239760000Y-49840000D02*
X242170000Y-49840000D01*
X239410000Y-50120000D02*
X239480000Y-50120000D01*
X237150000Y-54960000D02*
X238380000Y-53730000D01*
X239480000Y-50120000D02*
X239760000Y-49840000D01*
X238380000Y-51150000D02*
X239410000Y-50120000D01*
X238380000Y-53730000D02*
X238380000Y-51150000D01*
%TO.N,Net-(J1-Pin_1)*%
X242170000Y-57050000D02*
X238230000Y-60990000D01*
X238230000Y-60990000D02*
X236210000Y-60990000D01*
X242170000Y-54920000D02*
X242170000Y-57050000D01*
%TO.N,Net-(J2-Pin_1)*%
X225480000Y-49830000D02*
X227370000Y-49830000D01*
X227370000Y-49830000D02*
X229320000Y-47880000D01*
%TO.N,/PWM_MR*%
X225480000Y-62530000D02*
X226220000Y-62530000D01*
X226590000Y-63430000D02*
X227200000Y-64040000D01*
X226220000Y-62530000D02*
X226590000Y-62900000D01*
X227200000Y-64040000D02*
X228590000Y-64040000D01*
X226590000Y-62900000D02*
X226590000Y-63430000D01*
%TO.N,/PWM_RR*%
X209210000Y-47290000D02*
X208020000Y-48480000D01*
X210240000Y-47290000D02*
X209210000Y-47290000D01*
X208020000Y-48480000D02*
X206880000Y-48480000D01*
%TO.N,Net-(J4-Pin_2)*%
X179930000Y-46760000D02*
X184860000Y-46760000D01*
X184860000Y-46760000D02*
X184885000Y-46735000D01*
%TO.N,/DI1_RL*%
X209540000Y-49830000D02*
X210240000Y-49830000D01*
%TO.N,/PWM_ML*%
X228560000Y-54910000D02*
X228610000Y-54960000D01*
X225480000Y-54910000D02*
X228560000Y-54910000D01*
%TO.N,/DI2_RR*%
X210240000Y-54910000D02*
X209560000Y-54910000D01*
X209560000Y-54910000D02*
X206890000Y-57580000D01*
%TO.N,/DI1_RR*%
X210240000Y-57450000D02*
X210010000Y-57450000D01*
X210010000Y-57450000D02*
X206880000Y-60580000D01*
%TO.N,/PWM_RL*%
X227200000Y-51950000D02*
X228610000Y-51950000D01*
X225480000Y-52370000D02*
X226780000Y-52370000D01*
X226780000Y-52370000D02*
X227200000Y-51950000D01*
%TO.N,Net-(J4-Pin_3)*%
X179930000Y-49300000D02*
X184860000Y-49300000D01*
X184860000Y-49300000D02*
X184885000Y-49275000D01*
%TO.N,/DI1_ML*%
X226200000Y-59990000D02*
X227200000Y-60990000D01*
X225480000Y-59990000D02*
X226200000Y-59990000D01*
X227200000Y-60990000D02*
X228590000Y-60990000D01*
%TO.N,/DI2_ML*%
X226770000Y-57990000D02*
X228590000Y-57990000D01*
X225480000Y-57450000D02*
X226230000Y-57450000D01*
X226230000Y-57450000D02*
X226770000Y-57990000D01*
%TO.N,Net-(J4-Pin_1)*%
X184860000Y-44220000D02*
X184885000Y-44195000D01*
X179930000Y-44220000D02*
X184860000Y-44220000D01*
%TO.N,Net-(J5-Pin_1)*%
X179930000Y-54380000D02*
X184920000Y-54380000D01*
X184920000Y-54380000D02*
X185000000Y-54460000D01*
%TO.N,Net-(J5-Pin_3)*%
X184920000Y-59460000D02*
X185000000Y-59540000D01*
X179930000Y-59460000D02*
X184920000Y-59460000D01*
%TO.N,Net-(J5-Pin_2)*%
X184920000Y-56920000D02*
X185000000Y-57000000D01*
X179930000Y-56920000D02*
X184920000Y-56920000D01*
%TO.N,Net-(J6-Pin_3)*%
X152000000Y-56960000D02*
X157030000Y-56960000D01*
X157030000Y-56960000D02*
X157070000Y-56920000D01*
%TO.N,Net-(J6-Pin_1)*%
X152000000Y-62040000D02*
X157030000Y-62040000D01*
X157030000Y-62040000D02*
X157070000Y-62000000D01*
%TO.N,Net-(J6-Pin_2)*%
X157030000Y-59500000D02*
X157070000Y-59460000D01*
X152000000Y-59500000D02*
X157030000Y-59500000D01*
%TO.N,Net-(J6-Pin_6)*%
X157030000Y-49340000D02*
X157070000Y-49300000D01*
X152000000Y-49340000D02*
X157030000Y-49340000D01*
%TO.N,Net-(J6-Pin_4)*%
X152000000Y-54420000D02*
X157030000Y-54420000D01*
X157030000Y-54420000D02*
X157070000Y-54380000D01*
%TO.N,Net-(J6-Pin_5)*%
X157030000Y-51880000D02*
X157070000Y-51840000D01*
X152000000Y-51880000D02*
X157030000Y-51880000D01*
%TO.N,Net-(J12-Pin_1)*%
X199260000Y-63600000D02*
X199270000Y-63610000D01*
X197090000Y-63600000D02*
X199260000Y-63600000D01*
%TO.N,/BAT_LVL_SENS*%
X206890000Y-43600000D02*
X208040000Y-44750000D01*
X207890000Y-45460000D02*
X208600000Y-44750000D01*
X206890000Y-45460000D02*
X207890000Y-45460000D01*
X208600000Y-44750000D02*
X210240000Y-44750000D01*
X206890000Y-42420000D02*
X206890000Y-43600000D01*
X208040000Y-44750000D02*
X210240000Y-44750000D01*
%TO.N,Net-(J8-Pin_1)*%
X207125000Y-84450000D02*
X208210000Y-84450000D01*
X208210000Y-84450000D02*
X209026000Y-85266000D01*
X209026000Y-90804000D02*
X206785000Y-93045000D01*
X209026000Y-85266000D02*
X209026000Y-90804000D01*
X206785000Y-93045000D02*
X206785000Y-97715000D01*
%TO.N,Net-(J8-Pin_2)*%
X207125000Y-76830000D02*
X209070000Y-76830000D01*
X209070000Y-76830000D02*
X209080000Y-76820000D01*
X211309000Y-92689000D02*
X211785000Y-93165000D01*
X209080000Y-76820000D02*
X211309000Y-79049000D01*
X211309000Y-79049000D02*
X211309000Y-92689000D01*
X211785000Y-93165000D02*
X211785000Y-97715000D01*
%TD*%
%TA.AperFunction,Conductor*%
%TO.N,GND*%
G36*
X203725703Y-77339598D02*
G01*
X203732181Y-77345630D01*
X203767345Y-77380794D01*
X203767350Y-77380798D01*
X203862997Y-77450289D01*
X203971155Y-77528870D01*
X204069902Y-77579184D01*
X204195616Y-77643239D01*
X204195618Y-77643239D01*
X204195621Y-77643241D01*
X204435215Y-77721090D01*
X204684038Y-77760500D01*
X204684039Y-77760500D01*
X204935961Y-77760500D01*
X204935962Y-77760500D01*
X205184785Y-77721090D01*
X205424379Y-77643241D01*
X205648845Y-77528870D01*
X205648845Y-77528869D01*
X205653186Y-77526658D01*
X205653874Y-77528010D01*
X205714813Y-77511508D01*
X205781421Y-77532604D01*
X205822677Y-77579184D01*
X205841655Y-77616431D01*
X205861134Y-77643241D01*
X205980483Y-77807510D01*
X206147490Y-77974517D01*
X206338567Y-78113343D01*
X206437991Y-78164002D01*
X206549003Y-78220566D01*
X206549005Y-78220566D01*
X206549008Y-78220568D01*
X206579856Y-78230591D01*
X206773631Y-78293553D01*
X207006903Y-78330500D01*
X207006908Y-78330500D01*
X207243097Y-78330500D01*
X207476368Y-78293553D01*
X207700992Y-78220568D01*
X207911433Y-78113343D01*
X208102510Y-77974517D01*
X208210208Y-77866819D01*
X208271531Y-77833334D01*
X208297889Y-77830500D01*
X208624218Y-77830500D01*
X208691257Y-77850185D01*
X208711899Y-77866819D01*
X210272181Y-79427101D01*
X210305666Y-79488424D01*
X210308500Y-79514782D01*
X210308500Y-92787541D01*
X210310754Y-92798870D01*
X210310755Y-92798876D01*
X210346947Y-92980828D01*
X210346950Y-92980840D01*
X210354001Y-92997861D01*
X210422366Y-93162911D01*
X210422371Y-93162920D01*
X210531859Y-93326780D01*
X210531860Y-93326781D01*
X210531861Y-93326782D01*
X210671218Y-93466139D01*
X210671219Y-93466139D01*
X210678286Y-93473206D01*
X210678285Y-93473206D01*
X210678289Y-93473209D01*
X210748181Y-93543101D01*
X210781666Y-93604424D01*
X210784500Y-93630782D01*
X210784500Y-95300731D01*
X210764815Y-95367770D01*
X210735987Y-95399106D01*
X210667988Y-95451284D01*
X210667978Y-95451292D01*
X210511292Y-95607978D01*
X210511286Y-95607985D01*
X210376384Y-95783793D01*
X210265585Y-95975703D01*
X210265581Y-95975713D01*
X210180780Y-96180440D01*
X210123424Y-96394495D01*
X210094501Y-96614189D01*
X210094500Y-96614205D01*
X210094500Y-98815794D01*
X210094501Y-98815810D01*
X210122107Y-99025504D01*
X210123425Y-99035508D01*
X210180780Y-99249559D01*
X210265581Y-99454286D01*
X210265585Y-99454296D01*
X210376384Y-99646206D01*
X210502078Y-99810014D01*
X210527272Y-99875183D01*
X210513234Y-99943628D01*
X210464420Y-99993617D01*
X210403702Y-100009500D01*
X208579240Y-100009500D01*
X208512201Y-99989815D01*
X208466446Y-99937011D01*
X208456502Y-99867853D01*
X208460855Y-99848610D01*
X208469086Y-99822196D01*
X208475500Y-99751616D01*
X208475500Y-95678384D01*
X208469086Y-95607804D01*
X208418478Y-95445394D01*
X208330472Y-95299815D01*
X208330470Y-95299813D01*
X208330469Y-95299811D01*
X208210188Y-95179530D01*
X208064606Y-95091522D01*
X208032514Y-95081522D01*
X207902196Y-95040914D01*
X207898275Y-95040557D01*
X207896115Y-95039704D01*
X207895761Y-95039634D01*
X207895773Y-95039569D01*
X207833293Y-95014886D01*
X207792506Y-94958157D01*
X207785500Y-94917067D01*
X207785500Y-93510782D01*
X207805185Y-93443743D01*
X207821819Y-93423101D01*
X208794736Y-92450185D01*
X209803140Y-91441781D01*
X209912632Y-91277914D01*
X209988052Y-91095835D01*
X210026501Y-90902540D01*
X210026501Y-90705459D01*
X210026501Y-90700349D01*
X210026500Y-90700323D01*
X210026500Y-85167456D01*
X209999058Y-85029501D01*
X209999058Y-85029500D01*
X209988051Y-84974164D01*
X209961145Y-84909207D01*
X209912632Y-84792086D01*
X209912631Y-84792085D01*
X209912628Y-84792079D01*
X209803140Y-84628219D01*
X209737910Y-84562989D01*
X209663782Y-84488861D01*
X209663781Y-84488860D01*
X208994208Y-83819288D01*
X208994206Y-83819285D01*
X208994206Y-83819286D01*
X208987139Y-83812219D01*
X208987139Y-83812218D01*
X208847782Y-83672861D01*
X208847781Y-83672860D01*
X208847780Y-83672859D01*
X208683920Y-83563371D01*
X208683907Y-83563364D01*
X208536364Y-83502250D01*
X208536357Y-83502248D01*
X208527955Y-83498768D01*
X208501836Y-83487949D01*
X208397343Y-83467164D01*
X208394317Y-83466562D01*
X208308543Y-83449500D01*
X208308541Y-83449500D01*
X208297889Y-83449500D01*
X208230850Y-83429815D01*
X208210208Y-83413181D01*
X208102512Y-83305485D01*
X208102510Y-83305483D01*
X207911433Y-83166657D01*
X207904515Y-83163132D01*
X207700996Y-83059433D01*
X207476368Y-82986446D01*
X207243097Y-82949500D01*
X207243092Y-82949500D01*
X207006908Y-82949500D01*
X207006903Y-82949500D01*
X206773631Y-82986446D01*
X206549003Y-83059433D01*
X206338566Y-83166657D01*
X206266238Y-83219207D01*
X206147490Y-83305483D01*
X206147488Y-83305485D01*
X206147487Y-83305485D01*
X205980485Y-83472487D01*
X205980485Y-83472488D01*
X205980483Y-83472490D01*
X205961391Y-83498768D01*
X205841657Y-83663566D01*
X205734433Y-83874003D01*
X205661446Y-84098631D01*
X205624500Y-84331902D01*
X205624500Y-84510218D01*
X205604815Y-84577257D01*
X205552011Y-84623012D01*
X205482853Y-84632956D01*
X205419297Y-84603931D01*
X205412819Y-84597899D01*
X203846099Y-83031179D01*
X203830839Y-83010601D01*
X203830017Y-83011151D01*
X203717143Y-82842223D01*
X203717137Y-82842215D01*
X203556819Y-82681897D01*
X203523334Y-82620574D01*
X203520500Y-82594216D01*
X203520500Y-77433311D01*
X203540185Y-77366272D01*
X203592989Y-77320517D01*
X203662147Y-77310573D01*
X203725703Y-77339598D01*
G37*
%TD.AperFunction*%
%TA.AperFunction,Conductor*%
G36*
X178023698Y-43240185D02*
G01*
X178069453Y-43292989D01*
X178079397Y-43362147D01*
X178056977Y-43417383D01*
X178040646Y-43439863D01*
X178011406Y-43480107D01*
X177910528Y-43678092D01*
X177841860Y-43889429D01*
X177807100Y-44108897D01*
X177807100Y-44331102D01*
X177839702Y-44536947D01*
X177841861Y-44550574D01*
X177910527Y-44761905D01*
X178011406Y-44959892D01*
X178142016Y-45139661D01*
X178299139Y-45296784D01*
X178427002Y-45389682D01*
X178469667Y-45445012D01*
X178475646Y-45514626D01*
X178443040Y-45576421D01*
X178427002Y-45590317D01*
X178299139Y-45683216D01*
X178299137Y-45683218D01*
X178299136Y-45683218D01*
X178142018Y-45840336D01*
X178142018Y-45840337D01*
X178142016Y-45840339D01*
X178108783Y-45886080D01*
X178011406Y-46020107D01*
X177910528Y-46218092D01*
X177841860Y-46429429D01*
X177833384Y-46482947D01*
X177807100Y-46648897D01*
X177807100Y-46871103D01*
X177814354Y-46916902D01*
X177841679Y-47089430D01*
X177841861Y-47090574D01*
X177910527Y-47301905D01*
X178011406Y-47499892D01*
X178142016Y-47679661D01*
X178299139Y-47836784D01*
X178424387Y-47927782D01*
X178427002Y-47929682D01*
X178469667Y-47985012D01*
X178475646Y-48054626D01*
X178443040Y-48116421D01*
X178427002Y-48130317D01*
X178299139Y-48223216D01*
X178299137Y-48223218D01*
X178299136Y-48223218D01*
X178142018Y-48380336D01*
X178142018Y-48380337D01*
X178142016Y-48380339D01*
X178101569Y-48436010D01*
X178011406Y-48560107D01*
X177910528Y-48758092D01*
X177841860Y-48969429D01*
X177817369Y-49124063D01*
X177807100Y-49188897D01*
X177807100Y-49411103D01*
X177808503Y-49419961D01*
X177840901Y-49624517D01*
X177841861Y-49630574D01*
X177885001Y-49763346D01*
X177910528Y-49841907D01*
X177952315Y-49923919D01*
X178011406Y-50039892D01*
X178142016Y-50219661D01*
X178299139Y-50376784D01*
X178478908Y-50507394D01*
X178676895Y-50608273D01*
X178888226Y-50676939D01*
X179107697Y-50711700D01*
X179107698Y-50711700D01*
X180752302Y-50711700D01*
X180752303Y-50711700D01*
X180971774Y-50676939D01*
X181183105Y-50608273D01*
X181381092Y-50507394D01*
X181560861Y-50376784D01*
X181600826Y-50336819D01*
X181662149Y-50303334D01*
X181688507Y-50300500D01*
X183666400Y-50300500D01*
X183733439Y-50320185D01*
X183754081Y-50336819D01*
X183874918Y-50457656D01*
X183874923Y-50457660D01*
X184024960Y-50566667D01*
X184072361Y-50601106D01*
X184289815Y-50711904D01*
X184521924Y-50787321D01*
X184762973Y-50825500D01*
X184762974Y-50825500D01*
X185007026Y-50825500D01*
X185007027Y-50825500D01*
X185248076Y-50787321D01*
X185480185Y-50711904D01*
X185697639Y-50601106D01*
X185895083Y-50457655D01*
X186067655Y-50285083D01*
X186211106Y-50087639D01*
X186321904Y-49870185D01*
X186397321Y-49638076D01*
X186435500Y-49397027D01*
X186435500Y-49152973D01*
X186397321Y-48911924D01*
X186321904Y-48679815D01*
X186211106Y-48462361D01*
X186138123Y-48361908D01*
X186067660Y-48264923D01*
X186067656Y-48264918D01*
X185895419Y-48092681D01*
X185861934Y-48031358D01*
X185866918Y-47961666D01*
X185895419Y-47917319D01*
X185975957Y-47836781D01*
X186067655Y-47745083D01*
X186211106Y-47547639D01*
X186321904Y-47330185D01*
X186397321Y-47098076D01*
X186435500Y-46857027D01*
X186435500Y-46612973D01*
X186397321Y-46371924D01*
X186321904Y-46139815D01*
X186211106Y-45922361D01*
X186211104Y-45922358D01*
X186211103Y-45922356D01*
X186115449Y-45790698D01*
X186091969Y-45724891D01*
X186107795Y-45656838D01*
X186151621Y-45611694D01*
X186170185Y-45600472D01*
X186290472Y-45480185D01*
X186378478Y-45334606D01*
X186429086Y-45172196D01*
X186435500Y-45101616D01*
X186435500Y-43344500D01*
X186455185Y-43277461D01*
X186507989Y-43231706D01*
X186559500Y-43220500D01*
X188674612Y-43220500D01*
X188741651Y-43240185D01*
X188787406Y-43292989D01*
X188797350Y-43362147D01*
X188768325Y-43425703D01*
X188762293Y-43432181D01*
X187953117Y-44241358D01*
X187172220Y-45022255D01*
X187172218Y-45022257D01*
X187122612Y-45071863D01*
X187032859Y-45161615D01*
X186923371Y-45325476D01*
X186923364Y-45325489D01*
X186892774Y-45399341D01*
X186892768Y-45399356D01*
X186891094Y-45403400D01*
X186847949Y-45507560D01*
X186836572Y-45564755D01*
X186835051Y-45572397D01*
X186835050Y-45572403D01*
X186809500Y-45700852D01*
X186809500Y-62246037D01*
X186789815Y-62313076D01*
X186770376Y-62335350D01*
X186770788Y-62335762D01*
X186589205Y-62517345D01*
X186589201Y-62517350D01*
X186441132Y-62721151D01*
X186326760Y-62945616D01*
X186248910Y-63185214D01*
X186209500Y-63434038D01*
X186209500Y-63685961D01*
X186248910Y-63934785D01*
X186326760Y-64174383D01*
X186405413Y-64328747D01*
X186437320Y-64391368D01*
X186441132Y-64398848D01*
X186589201Y-64602649D01*
X186589205Y-64602654D01*
X186767345Y-64780794D01*
X186767350Y-64780798D01*
X186830162Y-64826433D01*
X186971155Y-64928870D01*
X187049654Y-64968867D01*
X187195616Y-65043239D01*
X187195618Y-65043239D01*
X187195621Y-65043241D01*
X187435215Y-65121090D01*
X187684038Y-65160500D01*
X187684039Y-65160500D01*
X187935961Y-65160500D01*
X187935962Y-65160500D01*
X188184785Y-65121090D01*
X188424379Y-65043241D01*
X188648845Y-64928870D01*
X188789838Y-64826433D01*
X188802615Y-64817150D01*
X188868421Y-64793670D01*
X188936475Y-64809495D01*
X188985170Y-64859601D01*
X188999500Y-64917468D01*
X188999500Y-71125038D01*
X188999499Y-71125053D01*
X188999499Y-71310544D01*
X189013451Y-71398633D01*
X189027829Y-71489410D01*
X189083787Y-71661636D01*
X189083788Y-71661639D01*
X189166006Y-71822997D01*
X189272440Y-71969493D01*
X189272444Y-71969497D01*
X189272447Y-71969501D01*
X189400499Y-72097553D01*
X189404829Y-72101883D01*
X189404840Y-72101893D01*
X192838894Y-75535947D01*
X196243181Y-78940233D01*
X196276666Y-79001556D01*
X196279500Y-79027914D01*
X196279500Y-87245038D01*
X196279499Y-87245053D01*
X196279499Y-87249454D01*
X196279499Y-87430546D01*
X196295343Y-87530577D01*
X196307829Y-87609410D01*
X196363787Y-87781636D01*
X196363788Y-87781639D01*
X196412191Y-87876632D01*
X196439363Y-87929961D01*
X196446006Y-87942997D01*
X196552440Y-88089493D01*
X196552444Y-88089497D01*
X196552447Y-88089501D01*
X196645212Y-88182266D01*
X196684829Y-88221883D01*
X196684840Y-88221893D01*
X198950766Y-90487819D01*
X198984251Y-90549142D01*
X198979267Y-90618834D01*
X198937395Y-90674767D01*
X198871931Y-90699184D01*
X198863085Y-90699500D01*
X193260553Y-90699500D01*
X193260547Y-90699499D01*
X193079454Y-90699499D01*
X193079448Y-90699500D01*
X191010849Y-90699500D01*
X190943810Y-90679815D01*
X190898055Y-90627011D01*
X190888111Y-90557853D01*
X190917136Y-90494297D01*
X190923168Y-90487819D01*
X190962821Y-90448166D01*
X191008112Y-90402875D01*
X191123237Y-90232777D01*
X191204091Y-90043965D01*
X191247751Y-89843263D01*
X191250500Y-89797118D01*
X191250500Y-88382882D01*
X191247751Y-88336737D01*
X191214148Y-88182266D01*
X191204092Y-88136038D01*
X191204090Y-88136031D01*
X191123239Y-87947228D01*
X191123237Y-87947223D01*
X191065701Y-87862213D01*
X191008117Y-87777131D01*
X191008114Y-87777128D01*
X191008112Y-87777125D01*
X190862875Y-87631888D01*
X190854990Y-87626551D01*
X190810509Y-87572671D01*
X190800500Y-87523865D01*
X190800500Y-84614500D01*
X190820185Y-84547461D01*
X190872989Y-84501706D01*
X190924500Y-84490500D01*
X191274096Y-84490500D01*
X191311082Y-84487932D01*
X191366567Y-84484081D01*
X191366573Y-84484079D01*
X191366577Y-84484079D01*
X191583135Y-84433145D01*
X191583135Y-84433144D01*
X191583143Y-84433143D01*
X191786671Y-84343277D01*
X191970221Y-84217542D01*
X192127542Y-84060221D01*
X192253277Y-83876671D01*
X192343143Y-83673143D01*
X192345395Y-83663567D01*
X192394079Y-83456577D01*
X192394079Y-83456573D01*
X192394081Y-83456567D01*
X192400500Y-83364092D01*
X192400500Y-82215908D01*
X192394081Y-82123433D01*
X192394079Y-82123427D01*
X192394079Y-82123422D01*
X192343145Y-81906864D01*
X192343144Y-81906861D01*
X192343143Y-81906857D01*
X192253277Y-81703329D01*
X192127542Y-81519779D01*
X192127537Y-81519773D01*
X191970226Y-81362462D01*
X191970220Y-81362457D01*
X191786668Y-81236721D01*
X191583151Y-81146860D01*
X191583135Y-81146854D01*
X191366577Y-81095920D01*
X191366561Y-81095918D01*
X191274096Y-81089500D01*
X191274092Y-81089500D01*
X188325908Y-81089500D01*
X188325904Y-81089500D01*
X188233438Y-81095918D01*
X188233422Y-81095920D01*
X188016864Y-81146854D01*
X188016848Y-81146860D01*
X187813331Y-81236721D01*
X187629779Y-81362457D01*
X187629773Y-81362462D01*
X187472462Y-81519773D01*
X187472457Y-81519779D01*
X187346721Y-81703330D01*
X187341309Y-81715589D01*
X187296222Y-81768964D01*
X187229435Y-81789490D01*
X187227876Y-81789500D01*
X186815783Y-81789500D01*
X186748744Y-81769815D01*
X186728102Y-81753181D01*
X186204220Y-81229299D01*
X186170735Y-81167976D01*
X186167901Y-81141618D01*
X186167901Y-79080464D01*
X186187586Y-79013425D01*
X186195800Y-79002103D01*
X186315134Y-78855753D01*
X186386965Y-78718239D01*
X186404638Y-78684406D01*
X186457818Y-78498552D01*
X186467901Y-78385138D01*
X186467901Y-77574862D01*
X186457818Y-77461448D01*
X186404638Y-77275594D01*
X186315135Y-77104249D01*
X186226745Y-76995848D01*
X186195799Y-76957895D01*
X186168690Y-76893499D01*
X186167901Y-76879534D01*
X186167901Y-72548857D01*
X186129453Y-72355571D01*
X186129452Y-72355570D01*
X186129452Y-72355566D01*
X186117202Y-72325992D01*
X186054036Y-72173493D01*
X186054029Y-72173480D01*
X185944540Y-72009619D01*
X185944537Y-72009615D01*
X185802087Y-71867165D01*
X185802056Y-71867136D01*
X168203817Y-54268897D01*
X177807100Y-54268897D01*
X177807100Y-54491102D01*
X177831965Y-54648097D01*
X177841861Y-54710574D01*
X177910527Y-54921905D01*
X178011406Y-55119892D01*
X178142016Y-55299661D01*
X178299139Y-55456784D01*
X178408165Y-55535996D01*
X178427002Y-55549682D01*
X178469667Y-55605012D01*
X178475646Y-55674626D01*
X178443040Y-55736421D01*
X178427002Y-55750317D01*
X178299139Y-55843216D01*
X178299137Y-55843218D01*
X178299136Y-55843218D01*
X178142018Y-56000336D01*
X178142018Y-56000337D01*
X178142016Y-56000339D01*
X178085923Y-56077543D01*
X178011406Y-56180107D01*
X177910528Y-56378092D01*
X177841860Y-56589429D01*
X177828646Y-56672859D01*
X177807100Y-56808897D01*
X177807100Y-57031103D01*
X177815165Y-57082026D01*
X177838385Y-57228632D01*
X177841861Y-57250574D01*
X177910527Y-57461905D01*
X178011406Y-57659892D01*
X178142016Y-57839661D01*
X178299139Y-57996784D01*
X178427002Y-58089682D01*
X178469667Y-58145012D01*
X178475646Y-58214626D01*
X178443040Y-58276421D01*
X178427002Y-58290317D01*
X178299139Y-58383216D01*
X178299137Y-58383218D01*
X178299136Y-58383218D01*
X178142018Y-58540336D01*
X178142018Y-58540337D01*
X178142016Y-58540339D01*
X178098535Y-58600185D01*
X178011406Y-58720107D01*
X177910528Y-58918092D01*
X177841860Y-59129429D01*
X177807100Y-59348897D01*
X177807100Y-59571102D01*
X177839818Y-59777679D01*
X177841861Y-59790574D01*
X177910527Y-60001905D01*
X178011406Y-60199892D01*
X178142016Y-60379661D01*
X178299139Y-60536784D01*
X178478908Y-60667394D01*
X178676895Y-60768273D01*
X178888226Y-60836939D01*
X179107697Y-60871700D01*
X179107698Y-60871700D01*
X180752302Y-60871700D01*
X180752303Y-60871700D01*
X180971774Y-60836939D01*
X181183105Y-60768273D01*
X181381092Y-60667394D01*
X181560861Y-60536784D01*
X181600826Y-60496819D01*
X181662149Y-60463334D01*
X181688507Y-60460500D01*
X183689078Y-60460500D01*
X183756117Y-60480185D01*
X183789394Y-60511612D01*
X183817345Y-60550083D01*
X183817347Y-60550085D01*
X183989918Y-60722656D01*
X183989923Y-60722660D01*
X184122236Y-60818790D01*
X184187361Y-60866106D01*
X184404815Y-60976904D01*
X184636924Y-61052321D01*
X184877973Y-61090500D01*
X184877974Y-61090500D01*
X185122026Y-61090500D01*
X185122027Y-61090500D01*
X185363076Y-61052321D01*
X185595185Y-60976904D01*
X185812639Y-60866106D01*
X186010083Y-60722655D01*
X186182655Y-60550083D01*
X186326106Y-60352639D01*
X186436904Y-60135185D01*
X186512321Y-59903076D01*
X186550500Y-59662027D01*
X186550500Y-59417973D01*
X186512321Y-59176924D01*
X186436904Y-58944815D01*
X186326106Y-58727361D01*
X186297044Y-58687361D01*
X186182660Y-58529923D01*
X186182656Y-58529918D01*
X186010419Y-58357681D01*
X185976934Y-58296358D01*
X185981918Y-58226666D01*
X186010419Y-58182319D01*
X186089158Y-58103580D01*
X186182655Y-58010083D01*
X186326106Y-57812639D01*
X186436904Y-57595185D01*
X186512321Y-57363076D01*
X186550500Y-57122027D01*
X186550500Y-56877973D01*
X186512321Y-56636924D01*
X186436904Y-56404815D01*
X186326106Y-56187361D01*
X186326104Y-56187358D01*
X186326103Y-56187356D01*
X186230449Y-56055698D01*
X186206969Y-55989891D01*
X186222795Y-55921838D01*
X186266621Y-55876694D01*
X186285185Y-55865472D01*
X186405472Y-55745185D01*
X186493478Y-55599606D01*
X186544086Y-55437196D01*
X186550500Y-55366616D01*
X186550500Y-53553384D01*
X186544086Y-53482804D01*
X186493478Y-53320394D01*
X186405472Y-53174815D01*
X186405470Y-53174813D01*
X186405469Y-53174811D01*
X186285188Y-53054530D01*
X186238384Y-53026236D01*
X186139606Y-52966522D01*
X185977196Y-52915914D01*
X185977194Y-52915913D01*
X185977192Y-52915913D01*
X185927778Y-52911423D01*
X185906616Y-52909500D01*
X184093384Y-52909500D01*
X184074145Y-52911248D01*
X184022807Y-52915913D01*
X183860393Y-52966522D01*
X183714811Y-53054530D01*
X183594530Y-53174811D01*
X183571491Y-53212922D01*
X183518347Y-53300834D01*
X183506972Y-53319650D01*
X183455444Y-53366838D01*
X183400855Y-53379500D01*
X181688507Y-53379500D01*
X181621468Y-53359815D01*
X181600826Y-53343181D01*
X181560863Y-53303218D01*
X181560861Y-53303216D01*
X181381092Y-53172606D01*
X181183105Y-53071727D01*
X180971774Y-53003061D01*
X180971772Y-53003060D01*
X180971771Y-53003060D01*
X180803179Y-52976358D01*
X180752303Y-52968300D01*
X179107697Y-52968300D01*
X179056820Y-52976358D01*
X178888229Y-53003060D01*
X178676892Y-53071728D01*
X178478907Y-53172606D01*
X178299136Y-53303218D01*
X178142018Y-53460336D01*
X178142018Y-53460337D01*
X178142016Y-53460339D01*
X178118155Y-53493181D01*
X178011406Y-53640107D01*
X177910528Y-53838092D01*
X177841860Y-54049429D01*
X177807100Y-54268897D01*
X168203817Y-54268897D01*
X163006819Y-49071899D01*
X162973334Y-49010576D01*
X162970500Y-48984218D01*
X162970500Y-46261456D01*
X162946303Y-46139815D01*
X162937775Y-46096940D01*
X162932051Y-46068164D01*
X162884318Y-45952927D01*
X162883234Y-45950310D01*
X162883229Y-45950296D01*
X162856635Y-45886093D01*
X162856634Y-45886092D01*
X162856632Y-45886086D01*
X162826063Y-45840336D01*
X162747139Y-45722217D01*
X162604686Y-45579764D01*
X162604655Y-45579735D01*
X161327601Y-44302681D01*
X161294116Y-44241358D01*
X161299100Y-44171666D01*
X161327601Y-44127319D01*
X162198101Y-43256819D01*
X162259424Y-43223334D01*
X162285782Y-43220500D01*
X177956659Y-43220500D01*
X178023698Y-43240185D01*
G37*
%TD.AperFunction*%
%TA.AperFunction,Conductor*%
G36*
X221301257Y-72770185D02*
G01*
X221321899Y-72786819D01*
X234039735Y-85504655D01*
X234039764Y-85504686D01*
X234182217Y-85647139D01*
X234254408Y-85695375D01*
X234346086Y-85756632D01*
X234346088Y-85756633D01*
X234346092Y-85756635D01*
X234412876Y-85784297D01*
X234472201Y-85808870D01*
X234528164Y-85832051D01*
X234570982Y-85840568D01*
X234652892Y-85856861D01*
X234721456Y-85870500D01*
X234721459Y-85870500D01*
X234721460Y-85870500D01*
X234918540Y-85870500D01*
X236302067Y-85870500D01*
X236369106Y-85890185D01*
X236414861Y-85942989D01*
X236425557Y-85983274D01*
X236425914Y-85987196D01*
X236476522Y-86149606D01*
X236564530Y-86295188D01*
X236684811Y-86415469D01*
X236684813Y-86415470D01*
X236684815Y-86415472D01*
X236830394Y-86503478D01*
X236992804Y-86554086D01*
X237063384Y-86560500D01*
X237063387Y-86560500D01*
X241136613Y-86560500D01*
X241136616Y-86560500D01*
X241207196Y-86554086D01*
X241369606Y-86503478D01*
X241515185Y-86415472D01*
X241515189Y-86415468D01*
X241547819Y-86382839D01*
X241609142Y-86349354D01*
X241678834Y-86354338D01*
X241734767Y-86396210D01*
X241759184Y-86461674D01*
X241759500Y-86470520D01*
X241759500Y-87464217D01*
X241739815Y-87531256D01*
X241723181Y-87551898D01*
X240781899Y-88493181D01*
X240720576Y-88526666D01*
X240694218Y-88529500D01*
X216207168Y-88529500D01*
X216140129Y-88509815D01*
X216097260Y-88462913D01*
X216095659Y-88459848D01*
X216092734Y-88454249D01*
X215996910Y-88336731D01*
X215970571Y-88304428D01*
X215855502Y-88210602D01*
X215815985Y-88152981D01*
X215813893Y-88083142D01*
X215849891Y-88023260D01*
X215912550Y-87992345D01*
X215933863Y-87990500D01*
X229678543Y-87990500D01*
X229724019Y-87981453D01*
X229794118Y-87967510D01*
X229871836Y-87952051D01*
X229925165Y-87929961D01*
X230053914Y-87876632D01*
X230217782Y-87767139D01*
X230218340Y-87766581D01*
X230218706Y-87766381D01*
X230222492Y-87763274D01*
X230223080Y-87763991D01*
X230279659Y-87733089D01*
X230309166Y-87731084D01*
X230309166Y-87730500D01*
X230565961Y-87730500D01*
X230565962Y-87730500D01*
X230814785Y-87691090D01*
X231054379Y-87613241D01*
X231278845Y-87498870D01*
X231482656Y-87350793D01*
X231660793Y-87172656D01*
X231808870Y-86968845D01*
X231923241Y-86744379D01*
X232001090Y-86504785D01*
X232040500Y-86255962D01*
X232040500Y-86004038D01*
X232001090Y-85755215D01*
X231923241Y-85515621D01*
X231923239Y-85515618D01*
X231923239Y-85515616D01*
X231820923Y-85314811D01*
X231808870Y-85291155D01*
X231674727Y-85106522D01*
X231660798Y-85087350D01*
X231660794Y-85087345D01*
X231482654Y-84909205D01*
X231482649Y-84909201D01*
X231278848Y-84761132D01*
X231278847Y-84761131D01*
X231278845Y-84761130D01*
X231208747Y-84725413D01*
X231054383Y-84646760D01*
X230814785Y-84568910D01*
X230796166Y-84565961D01*
X230565962Y-84529500D01*
X230314038Y-84529500D01*
X230200638Y-84547461D01*
X230065214Y-84568910D01*
X229825616Y-84646760D01*
X229601151Y-84761132D01*
X229397350Y-84909201D01*
X229397345Y-84909205D01*
X229219205Y-85087345D01*
X229219201Y-85087350D01*
X229071132Y-85291151D01*
X228956760Y-85515616D01*
X228878909Y-85755214D01*
X228858370Y-85884898D01*
X228828441Y-85948033D01*
X228769129Y-85984964D01*
X228735897Y-85989500D01*
X219361863Y-85989500D01*
X219294824Y-85969815D01*
X219249069Y-85917011D01*
X219239125Y-85847853D01*
X219268150Y-85784297D01*
X219288978Y-85765182D01*
X219432649Y-85660798D01*
X219432647Y-85660798D01*
X219432656Y-85660793D01*
X219610793Y-85482656D01*
X219758870Y-85278845D01*
X219873241Y-85054379D01*
X219951090Y-84814785D01*
X219990500Y-84565962D01*
X219990500Y-84314038D01*
X219951090Y-84065215D01*
X219873241Y-83825621D01*
X219873239Y-83825618D01*
X219873239Y-83825616D01*
X219808103Y-83697780D01*
X219758870Y-83601155D01*
X219710012Y-83533907D01*
X219610798Y-83397350D01*
X219610794Y-83397345D01*
X219432654Y-83219205D01*
X219432649Y-83219201D01*
X219228848Y-83071132D01*
X219228847Y-83071131D01*
X219228845Y-83071130D01*
X219120038Y-83015690D01*
X219004383Y-82956760D01*
X218764785Y-82878910D01*
X218515962Y-82839500D01*
X218264038Y-82839500D01*
X218139626Y-82859205D01*
X218015214Y-82878910D01*
X217775616Y-82956760D01*
X217551151Y-83071132D01*
X217347350Y-83219201D01*
X217347345Y-83219205D01*
X217169208Y-83397342D01*
X217169206Y-83397345D01*
X217168447Y-83398390D01*
X217168056Y-83398690D01*
X217166041Y-83401051D01*
X217165545Y-83400627D01*
X217113115Y-83441053D01*
X217068132Y-83449500D01*
X215917889Y-83449500D01*
X215850850Y-83429815D01*
X215830208Y-83413181D01*
X215722512Y-83305485D01*
X215722510Y-83305483D01*
X215531433Y-83166657D01*
X215524515Y-83163132D01*
X215320996Y-83059433D01*
X215096368Y-82986446D01*
X214863097Y-82949500D01*
X214863092Y-82949500D01*
X214626908Y-82949500D01*
X214626903Y-82949500D01*
X214393631Y-82986446D01*
X214169003Y-83059433D01*
X213990795Y-83150236D01*
X213922126Y-83163132D01*
X213857385Y-83136856D01*
X213817128Y-83079749D01*
X213810500Y-83039751D01*
X213810500Y-78240248D01*
X213830185Y-78173209D01*
X213882989Y-78127454D01*
X213952147Y-78117510D01*
X213990789Y-78129761D01*
X214076061Y-78173209D01*
X214169003Y-78220566D01*
X214169005Y-78220566D01*
X214169008Y-78220568D01*
X214199856Y-78230591D01*
X214393631Y-78293553D01*
X214626903Y-78330500D01*
X214626908Y-78330500D01*
X214863097Y-78330500D01*
X215096368Y-78293553D01*
X215320992Y-78220568D01*
X215531433Y-78113343D01*
X215722510Y-77974517D01*
X215889517Y-77807510D01*
X216028343Y-77616433D01*
X216135568Y-77405992D01*
X216208553Y-77181368D01*
X216220009Y-77109038D01*
X216245500Y-76948097D01*
X216245500Y-76711902D01*
X216208553Y-76478631D01*
X216174689Y-76374412D01*
X216135568Y-76254008D01*
X216135566Y-76254005D01*
X216135566Y-76254003D01*
X216033081Y-76052866D01*
X216028343Y-76043567D01*
X215889517Y-75852490D01*
X215722510Y-75685483D01*
X215687872Y-75660317D01*
X215645207Y-75604989D01*
X215639228Y-75535375D01*
X215671833Y-75473580D01*
X215687873Y-75459682D01*
X215722510Y-75434517D01*
X215889517Y-75267510D01*
X216028343Y-75076433D01*
X216135568Y-74865992D01*
X216208553Y-74641368D01*
X216212294Y-74617748D01*
X216245500Y-74408097D01*
X216245500Y-74171902D01*
X216208553Y-73938631D01*
X216135566Y-73714003D01*
X216075586Y-73596286D01*
X216028343Y-73503567D01*
X215889517Y-73312490D01*
X215722510Y-73145483D01*
X215687872Y-73120317D01*
X215675039Y-73103675D01*
X215658710Y-73090443D01*
X215654132Y-73076562D01*
X215645207Y-73064989D01*
X215643408Y-73044050D01*
X215636825Y-73024089D01*
X215640478Y-73009935D01*
X215639228Y-72995375D01*
X215649034Y-72976789D01*
X215654288Y-72956437D01*
X215667268Y-72942231D01*
X215671833Y-72933580D01*
X215676509Y-72929016D01*
X215681910Y-72924014D01*
X215722510Y-72894517D01*
X215831897Y-72785129D01*
X215833640Y-72783516D01*
X215862879Y-72768979D01*
X215891531Y-72753334D01*
X215895124Y-72752947D01*
X215896204Y-72752411D01*
X215898135Y-72752623D01*
X215917889Y-72750500D01*
X221234218Y-72750500D01*
X221301257Y-72770185D01*
G37*
%TD.AperFunction*%
%TA.AperFunction,Conductor*%
G36*
X238749257Y-68790185D02*
G01*
X238769899Y-68806819D01*
X245713181Y-75750101D01*
X245746666Y-75811424D01*
X245749500Y-75837782D01*
X245749500Y-79593083D01*
X245743261Y-79614327D01*
X245741683Y-79636413D01*
X245733609Y-79647197D01*
X245729815Y-79660122D01*
X245713082Y-79674620D01*
X245699813Y-79692348D01*
X245687190Y-79697056D01*
X245677011Y-79705877D01*
X245655097Y-79709027D01*
X245634350Y-79716767D01*
X245621186Y-79713903D01*
X245607853Y-79715821D01*
X245587712Y-79706622D01*
X245566076Y-79701917D01*
X245548348Y-79688646D01*
X245544297Y-79686796D01*
X245537821Y-79680767D01*
X245531674Y-79674620D01*
X245505158Y-79648104D01*
X245505154Y-79648101D01*
X241627989Y-75770936D01*
X241594504Y-75709613D01*
X241599488Y-75639921D01*
X241608286Y-75621249D01*
X241609416Y-75619293D01*
X241694220Y-75414559D01*
X241751575Y-75200508D01*
X241780500Y-74980801D01*
X241780500Y-74759199D01*
X241751575Y-74539492D01*
X241694220Y-74325441D01*
X241609416Y-74120707D01*
X241508527Y-73945962D01*
X241498615Y-73928793D01*
X241363713Y-73752985D01*
X241363707Y-73752978D01*
X241207021Y-73596292D01*
X241207014Y-73596286D01*
X241031206Y-73461384D01*
X240839296Y-73350585D01*
X240839286Y-73350581D01*
X240634559Y-73265780D01*
X240420504Y-73208424D01*
X240200810Y-73179501D01*
X240200807Y-73179500D01*
X240200801Y-73179500D01*
X237999199Y-73179500D01*
X237999193Y-73179500D01*
X237999189Y-73179501D01*
X237779495Y-73208424D01*
X237565440Y-73265780D01*
X237360713Y-73350581D01*
X237360703Y-73350585D01*
X237168793Y-73461384D01*
X236992985Y-73596286D01*
X236992978Y-73596292D01*
X236836292Y-73752978D01*
X236836286Y-73752985D01*
X236701384Y-73928793D01*
X236590585Y-74120703D01*
X236590581Y-74120713D01*
X236505780Y-74325440D01*
X236448424Y-74539495D01*
X236419501Y-74759189D01*
X236419500Y-74759205D01*
X236419500Y-74980794D01*
X236419501Y-74980810D01*
X236447394Y-75192681D01*
X236448425Y-75200508D01*
X236466379Y-75267512D01*
X236505780Y-75414559D01*
X236590581Y-75619286D01*
X236590585Y-75619296D01*
X236701384Y-75811206D01*
X236836286Y-75987014D01*
X236836292Y-75987021D01*
X236992978Y-76143707D01*
X236992985Y-76143713D01*
X237168793Y-76278615D01*
X237360703Y-76389414D01*
X237360704Y-76389414D01*
X237360707Y-76389416D01*
X237565441Y-76474220D01*
X237779492Y-76531575D01*
X237999199Y-76560500D01*
X239112085Y-76560500D01*
X239179124Y-76580185D01*
X239199766Y-76596819D01*
X243568838Y-80965891D01*
X243602323Y-81027214D01*
X243605157Y-81053572D01*
X243605157Y-82710873D01*
X243585472Y-82777912D01*
X243532668Y-82823667D01*
X243463510Y-82833611D01*
X243399954Y-82804586D01*
X243393476Y-82798554D01*
X242244209Y-81649289D01*
X242244206Y-81649285D01*
X242244206Y-81649286D01*
X242237139Y-81642219D01*
X242237139Y-81642218D01*
X242097782Y-81502861D01*
X242097781Y-81502860D01*
X242097780Y-81502859D01*
X241933920Y-81393371D01*
X241933911Y-81393366D01*
X241859289Y-81362457D01*
X241805165Y-81340038D01*
X241751836Y-81317949D01*
X241751832Y-81317948D01*
X241751828Y-81317946D01*
X241655188Y-81298724D01*
X241558544Y-81279500D01*
X241558541Y-81279500D01*
X237285783Y-81279500D01*
X237218744Y-81259815D01*
X237198102Y-81243181D01*
X235106819Y-79151898D01*
X235073334Y-79090575D01*
X235070500Y-79064217D01*
X235070500Y-69259361D01*
X235090185Y-69192322D01*
X235142989Y-69146567D01*
X235212147Y-69136623D01*
X235250789Y-69148874D01*
X235336061Y-69192322D01*
X235455616Y-69253239D01*
X235455618Y-69253239D01*
X235455621Y-69253241D01*
X235695215Y-69331090D01*
X235944038Y-69370500D01*
X235944039Y-69370500D01*
X236195961Y-69370500D01*
X236195962Y-69370500D01*
X236444785Y-69331090D01*
X236684379Y-69253241D01*
X236908845Y-69138870D01*
X237112656Y-68990793D01*
X237290793Y-68812656D01*
X237290793Y-68812655D01*
X237294238Y-68809211D01*
X237295312Y-68810285D01*
X237348180Y-68775775D01*
X237383962Y-68770500D01*
X238682218Y-68770500D01*
X238749257Y-68790185D01*
G37*
%TD.AperFunction*%
%TA.AperFunction,Conductor*%
G36*
X229121257Y-41110185D02*
G01*
X229141899Y-41126819D01*
X231393620Y-43378540D01*
X231427105Y-43439863D01*
X231427556Y-43490407D01*
X231425894Y-43498768D01*
X231419295Y-43531940D01*
X231399500Y-43631456D01*
X231399500Y-67346058D01*
X231379815Y-67413097D01*
X231327011Y-67458852D01*
X231257853Y-67468796D01*
X231194297Y-67439771D01*
X231157569Y-67384377D01*
X231083239Y-67155616D01*
X231041747Y-67074184D01*
X230968870Y-66931155D01*
X230865388Y-66788724D01*
X230820798Y-66727350D01*
X230820794Y-66727345D01*
X230642654Y-66549205D01*
X230642649Y-66549201D01*
X230438848Y-66401132D01*
X230438847Y-66401131D01*
X230438845Y-66401130D01*
X230368747Y-66365413D01*
X230214383Y-66286760D01*
X229974785Y-66208910D01*
X229725962Y-66169500D01*
X229474038Y-66169500D01*
X229386379Y-66183384D01*
X229225214Y-66208910D01*
X228985616Y-66286760D01*
X228761151Y-66401132D01*
X228557350Y-66549201D01*
X228557345Y-66549205D01*
X228379205Y-66727345D01*
X228379201Y-66727350D01*
X228231132Y-66931151D01*
X228116760Y-67155616D01*
X228038910Y-67395214D01*
X227999500Y-67644038D01*
X227999500Y-67900834D01*
X227997986Y-67900834D01*
X227984985Y-67962646D01*
X227963427Y-67991651D01*
X225241899Y-70713181D01*
X225180576Y-70746666D01*
X225154218Y-70749500D01*
X215917889Y-70749500D01*
X215850850Y-70729815D01*
X215830208Y-70713181D01*
X215722512Y-70605485D01*
X215722510Y-70605483D01*
X215531433Y-70466657D01*
X215496475Y-70448845D01*
X215320996Y-70359433D01*
X215096368Y-70286446D01*
X214863097Y-70249500D01*
X214863092Y-70249500D01*
X214626908Y-70249500D01*
X214626903Y-70249500D01*
X214393631Y-70286446D01*
X214169003Y-70359433D01*
X213958566Y-70466657D01*
X213849550Y-70545862D01*
X213767490Y-70605483D01*
X213767488Y-70605485D01*
X213767487Y-70605485D01*
X213600485Y-70772487D01*
X213600485Y-70772488D01*
X213600483Y-70772490D01*
X213540862Y-70854550D01*
X213461657Y-70963566D01*
X213354433Y-71174003D01*
X213281447Y-71398630D01*
X213244603Y-71631247D01*
X213214673Y-71694381D01*
X213155362Y-71731312D01*
X213085499Y-71730314D01*
X213034451Y-71699530D01*
X209944208Y-68609288D01*
X209944206Y-68609285D01*
X209944206Y-68609286D01*
X209937139Y-68602219D01*
X209937139Y-68602218D01*
X209797782Y-68462861D01*
X209797781Y-68462860D01*
X209797780Y-68462859D01*
X209633920Y-68353371D01*
X209633907Y-68353364D01*
X209491352Y-68294317D01*
X209491349Y-68294316D01*
X209482136Y-68290500D01*
X209451836Y-68277949D01*
X209266735Y-68241130D01*
X209264560Y-68240697D01*
X209264546Y-68240694D01*
X209258544Y-68239500D01*
X209258541Y-68239500D01*
X207552812Y-68239500D01*
X207485773Y-68219815D01*
X207440018Y-68167011D01*
X207430074Y-68097853D01*
X207459099Y-68034297D01*
X207496517Y-68005015D01*
X207584863Y-67960000D01*
X212290000Y-67960000D01*
X223280000Y-67960000D01*
X223280000Y-61020000D01*
X212290000Y-61020000D01*
X212290000Y-67960000D01*
X207584863Y-67960000D01*
X207676433Y-67913343D01*
X207867510Y-67774517D01*
X207975208Y-67666819D01*
X208036531Y-67633334D01*
X208062889Y-67630500D01*
X208538543Y-67630500D01*
X208623586Y-67613583D01*
X208654118Y-67607510D01*
X208731836Y-67592051D01*
X208799764Y-67563914D01*
X208913914Y-67516632D01*
X209077782Y-67407139D01*
X209217139Y-67267782D01*
X209217139Y-67267780D01*
X209227347Y-67257573D01*
X209227348Y-67257570D01*
X211017139Y-65467782D01*
X211098072Y-65346657D01*
X211126632Y-65303914D01*
X211174735Y-65187782D01*
X211202051Y-65121836D01*
X211240500Y-64928541D01*
X211240500Y-64731460D01*
X211240500Y-63524698D01*
X211260185Y-63457659D01*
X211276819Y-63437017D01*
X211279798Y-63434038D01*
X211288410Y-63425426D01*
X211415578Y-63250395D01*
X211513799Y-63057625D01*
X211526935Y-63017196D01*
X211580654Y-62851867D01*
X211580654Y-62851866D01*
X211580655Y-62851863D01*
X211614500Y-62638175D01*
X211614500Y-62421825D01*
X211580655Y-62208137D01*
X211580654Y-62208133D01*
X211580654Y-62208132D01*
X211513800Y-62002377D01*
X211498276Y-61971910D01*
X211415578Y-61809605D01*
X211288410Y-61634574D01*
X211135426Y-61481590D01*
X210968507Y-61360316D01*
X210925844Y-61304988D01*
X210919865Y-61235375D01*
X210952471Y-61173580D01*
X210968503Y-61159687D01*
X211135426Y-61038410D01*
X211288410Y-60885426D01*
X211415578Y-60710395D01*
X211513799Y-60517625D01*
X211531903Y-60461908D01*
X211580654Y-60311867D01*
X211580654Y-60311866D01*
X211580655Y-60311863D01*
X211614500Y-60098175D01*
X211614500Y-59881825D01*
X211580655Y-59668137D01*
X211580654Y-59668133D01*
X211580654Y-59668132D01*
X211513800Y-59462377D01*
X211491175Y-59417973D01*
X211415578Y-59269605D01*
X211288410Y-59094574D01*
X211135426Y-58941590D01*
X210968507Y-58820316D01*
X210925844Y-58764988D01*
X210919865Y-58695375D01*
X210952471Y-58633580D01*
X210968503Y-58619687D01*
X211135426Y-58498410D01*
X211288410Y-58345426D01*
X211415578Y-58170395D01*
X211513799Y-57977625D01*
X211532360Y-57920500D01*
X211580654Y-57771867D01*
X211580654Y-57771866D01*
X211580655Y-57771863D01*
X211614500Y-57558175D01*
X211614500Y-57341825D01*
X211580655Y-57128137D01*
X211580654Y-57128133D01*
X211580654Y-57128132D01*
X211513800Y-56922377D01*
X211491175Y-56877973D01*
X211415578Y-56729605D01*
X211288410Y-56554574D01*
X211135426Y-56401590D01*
X210968507Y-56280316D01*
X210925844Y-56224988D01*
X210919865Y-56155375D01*
X210952471Y-56093580D01*
X210968503Y-56079687D01*
X211135426Y-55958410D01*
X211288410Y-55805426D01*
X211415578Y-55630395D01*
X211513799Y-55437625D01*
X211553177Y-55316433D01*
X211580654Y-55231867D01*
X211580654Y-55231866D01*
X211580655Y-55231863D01*
X211614500Y-55018175D01*
X211614500Y-54801825D01*
X211580655Y-54588137D01*
X211580654Y-54588133D01*
X211580654Y-54588132D01*
X211513800Y-54382377D01*
X211455979Y-54268897D01*
X211415578Y-54189605D01*
X211288410Y-54014574D01*
X211135426Y-53861590D01*
X210968507Y-53740316D01*
X210925844Y-53684988D01*
X210919865Y-53615375D01*
X210952471Y-53553580D01*
X210968503Y-53539687D01*
X211135426Y-53418410D01*
X211288410Y-53265426D01*
X211415578Y-53090395D01*
X211513799Y-52897625D01*
X211544433Y-52803342D01*
X211580654Y-52691867D01*
X211580654Y-52691866D01*
X211580655Y-52691863D01*
X211614500Y-52478175D01*
X211614500Y-52261825D01*
X211580655Y-52048137D01*
X211580654Y-52048133D01*
X211580654Y-52048132D01*
X211513800Y-51842377D01*
X211462768Y-51742221D01*
X211415578Y-51649605D01*
X211288410Y-51474574D01*
X211135426Y-51321590D01*
X210968507Y-51200316D01*
X210925844Y-51144988D01*
X210919865Y-51075375D01*
X210952471Y-51013580D01*
X210968503Y-50999687D01*
X211135426Y-50878410D01*
X211288410Y-50725426D01*
X211415578Y-50550395D01*
X211513799Y-50357625D01*
X211556196Y-50227141D01*
X211580654Y-50151867D01*
X211580654Y-50151866D01*
X211580655Y-50151863D01*
X211614500Y-49938175D01*
X211614500Y-49721825D01*
X224105500Y-49721825D01*
X224105500Y-49938174D01*
X224139345Y-50151864D01*
X224139345Y-50151867D01*
X224206199Y-50357622D01*
X224263297Y-50469682D01*
X224304422Y-50550395D01*
X224431590Y-50725426D01*
X224584574Y-50878410D01*
X224744835Y-50994847D01*
X224751490Y-50999682D01*
X224794155Y-51055012D01*
X224800134Y-51124626D01*
X224767528Y-51186421D01*
X224751490Y-51200317D01*
X224584574Y-51321590D01*
X224584572Y-51321592D01*
X224584571Y-51321592D01*
X224431592Y-51474571D01*
X224431592Y-51474572D01*
X224431590Y-51474574D01*
X224400821Y-51516924D01*
X224304422Y-51649604D01*
X224206199Y-51842377D01*
X224139345Y-52048132D01*
X224139345Y-52048135D01*
X224119953Y-52170570D01*
X224105500Y-52261825D01*
X224105500Y-52478175D01*
X224108563Y-52497511D01*
X224139345Y-52691864D01*
X224139345Y-52691867D01*
X224206199Y-52897622D01*
X224277590Y-53037735D01*
X224304422Y-53090395D01*
X224431590Y-53265426D01*
X224584574Y-53418410D01*
X224737476Y-53529500D01*
X224751490Y-53539682D01*
X224794155Y-53595012D01*
X224800134Y-53664626D01*
X224767528Y-53726421D01*
X224751490Y-53740317D01*
X224584574Y-53861590D01*
X224584572Y-53861592D01*
X224584571Y-53861592D01*
X224431592Y-54014571D01*
X224431592Y-54014572D01*
X224431590Y-54014574D01*
X224401434Y-54056080D01*
X224304422Y-54189604D01*
X224206199Y-54382377D01*
X224139345Y-54588132D01*
X224139345Y-54588135D01*
X224105500Y-54801825D01*
X224105500Y-55018174D01*
X224139345Y-55231864D01*
X224139345Y-55231867D01*
X224206199Y-55437622D01*
X224287803Y-55597779D01*
X224304422Y-55630395D01*
X224431590Y-55805426D01*
X224584574Y-55958410D01*
X224751490Y-56079682D01*
X224794155Y-56135012D01*
X224800134Y-56204626D01*
X224767528Y-56266421D01*
X224751490Y-56280317D01*
X224584574Y-56401590D01*
X224584572Y-56401592D01*
X224584571Y-56401592D01*
X224431592Y-56554571D01*
X224431592Y-56554572D01*
X224431590Y-56554574D01*
X224400821Y-56596924D01*
X224304422Y-56729604D01*
X224206199Y-56922377D01*
X224139345Y-57128132D01*
X224139345Y-57128135D01*
X224105500Y-57341825D01*
X224105500Y-57558174D01*
X224139345Y-57771864D01*
X224139345Y-57771867D01*
X224206199Y-57977622D01*
X224263297Y-58089682D01*
X224304422Y-58170395D01*
X224431590Y-58345426D01*
X224584574Y-58498410D01*
X224724655Y-58600185D01*
X224751490Y-58619682D01*
X224794155Y-58675012D01*
X224800134Y-58744626D01*
X224767528Y-58806421D01*
X224751490Y-58820317D01*
X224584574Y-58941590D01*
X224584572Y-58941592D01*
X224584571Y-58941592D01*
X224431592Y-59094571D01*
X224431592Y-59094572D01*
X224431590Y-59094574D01*
X224394912Y-59145057D01*
X224304422Y-59269604D01*
X224206199Y-59462377D01*
X224139345Y-59668132D01*
X224139345Y-59668135D01*
X224105500Y-59881825D01*
X224105500Y-60098174D01*
X224139345Y-60311864D01*
X224139345Y-60311867D01*
X224206199Y-60517622D01*
X224270378Y-60643580D01*
X224304422Y-60710395D01*
X224431590Y-60885426D01*
X224584574Y-61038410D01*
X224715294Y-61133384D01*
X224751490Y-61159682D01*
X224794155Y-61215012D01*
X224800134Y-61284626D01*
X224767528Y-61346421D01*
X224751490Y-61360317D01*
X224584574Y-61481590D01*
X224584572Y-61481592D01*
X224584571Y-61481592D01*
X224431592Y-61634571D01*
X224431592Y-61634572D01*
X224431590Y-61634574D01*
X224376976Y-61709742D01*
X224304422Y-61809604D01*
X224206199Y-62002377D01*
X224139345Y-62208132D01*
X224139345Y-62208135D01*
X224105500Y-62421825D01*
X224105500Y-62638174D01*
X224139345Y-62851864D01*
X224139345Y-62851867D01*
X224206199Y-63057622D01*
X224215961Y-63076781D01*
X224304422Y-63250395D01*
X224431590Y-63425426D01*
X224584574Y-63578410D01*
X224759605Y-63705578D01*
X224821983Y-63737361D01*
X224952377Y-63803800D01*
X225158133Y-63870654D01*
X225158134Y-63870654D01*
X225158137Y-63870655D01*
X225371825Y-63904500D01*
X225371826Y-63904500D01*
X225588172Y-63904500D01*
X225588175Y-63904500D01*
X225614298Y-63900362D01*
X225683589Y-63909316D01*
X225736797Y-63953945D01*
X225812857Y-64067777D01*
X225812859Y-64067780D01*
X225812860Y-64067781D01*
X225812861Y-64067782D01*
X225952218Y-64207139D01*
X225952219Y-64207139D01*
X225959286Y-64214206D01*
X225959285Y-64214206D01*
X225959288Y-64214208D01*
X226422860Y-64677781D01*
X226422861Y-64677782D01*
X226499593Y-64754514D01*
X226562219Y-64817140D01*
X226726079Y-64926628D01*
X226726092Y-64926635D01*
X226854833Y-64979961D01*
X226908159Y-65002049D01*
X226908164Y-65002051D01*
X226985882Y-65017510D01*
X227011104Y-65022527D01*
X227101456Y-65040500D01*
X227101459Y-65040500D01*
X227101460Y-65040500D01*
X227298540Y-65040500D01*
X227417111Y-65040500D01*
X227484150Y-65060185D01*
X227504792Y-65076819D01*
X227612490Y-65184517D01*
X227803567Y-65323343D01*
X227862956Y-65353603D01*
X228014003Y-65430566D01*
X228014005Y-65430566D01*
X228014008Y-65430568D01*
X228128525Y-65467777D01*
X228238631Y-65503553D01*
X228471903Y-65540500D01*
X228471908Y-65540500D01*
X228708097Y-65540500D01*
X228941368Y-65503553D01*
X229165992Y-65430568D01*
X229376433Y-65323343D01*
X229567510Y-65184517D01*
X229734517Y-65017510D01*
X229873343Y-64826433D01*
X229980568Y-64615992D01*
X230053553Y-64391368D01*
X230077314Y-64241347D01*
X230090500Y-64158097D01*
X230090500Y-63921902D01*
X230053553Y-63688631D01*
X229980566Y-63464003D01*
X229890322Y-63286891D01*
X229873343Y-63253567D01*
X229734517Y-63062490D01*
X229567510Y-62895483D01*
X229376433Y-62756657D01*
X229343530Y-62739892D01*
X229165996Y-62649433D01*
X229145008Y-62642613D01*
X229115204Y-62632930D01*
X229057531Y-62593493D01*
X229030333Y-62529134D01*
X229042248Y-62460288D01*
X229089492Y-62408812D01*
X229115202Y-62397070D01*
X229165992Y-62380568D01*
X229376433Y-62273343D01*
X229567510Y-62134517D01*
X229734517Y-61967510D01*
X229873343Y-61776433D01*
X229980568Y-61565992D01*
X230053553Y-61341368D01*
X230066423Y-61260108D01*
X230090500Y-61108097D01*
X230090500Y-60871902D01*
X230053553Y-60638631D01*
X230012282Y-60511614D01*
X229980568Y-60414008D01*
X229980566Y-60414005D01*
X229980566Y-60414003D01*
X229886114Y-60228632D01*
X229873343Y-60203567D01*
X229734517Y-60012490D01*
X229567510Y-59845483D01*
X229376433Y-59706657D01*
X229168057Y-59600484D01*
X229117262Y-59552511D01*
X229100467Y-59484690D01*
X229123004Y-59418555D01*
X229168057Y-59379515D01*
X229376433Y-59273343D01*
X229567510Y-59134517D01*
X229734517Y-58967510D01*
X229873343Y-58776433D01*
X229980568Y-58565992D01*
X230053553Y-58341368D01*
X230056559Y-58322387D01*
X230090500Y-58108097D01*
X230090500Y-57871902D01*
X230053553Y-57638631D01*
X230016279Y-57523914D01*
X229980568Y-57414008D01*
X229980566Y-57414005D01*
X229980566Y-57414003D01*
X229886114Y-57228632D01*
X229873343Y-57203567D01*
X229734517Y-57012490D01*
X229567510Y-56845483D01*
X229376433Y-56706657D01*
X229310101Y-56672859D01*
X229165997Y-56599434D01*
X229165994Y-56599433D01*
X229165992Y-56599432D01*
X229155978Y-56596178D01*
X229098306Y-56556741D01*
X229071109Y-56492382D01*
X229083024Y-56423536D01*
X229130269Y-56372061D01*
X229155978Y-56360319D01*
X229185992Y-56350568D01*
X229396433Y-56243343D01*
X229587510Y-56104517D01*
X229754517Y-55937510D01*
X229893343Y-55746433D01*
X230000568Y-55535992D01*
X230073553Y-55311368D01*
X230086022Y-55232642D01*
X230110500Y-55078097D01*
X230110500Y-54841902D01*
X230073553Y-54608631D01*
X230000566Y-54384003D01*
X229941916Y-54268897D01*
X229893343Y-54173567D01*
X229754517Y-53982490D01*
X229587510Y-53815483D01*
X229396433Y-53676657D01*
X229317728Y-53636555D01*
X229181651Y-53567220D01*
X229182161Y-53566218D01*
X229131908Y-53525732D01*
X229109836Y-53459440D01*
X229127107Y-53391739D01*
X229178239Y-53344122D01*
X229185731Y-53340700D01*
X229185986Y-53340569D01*
X229185992Y-53340568D01*
X229396433Y-53233343D01*
X229587510Y-53094517D01*
X229754517Y-52927510D01*
X229893343Y-52736433D01*
X230000568Y-52525992D01*
X230073553Y-52301368D01*
X230081192Y-52253136D01*
X230110500Y-52068097D01*
X230110500Y-51831902D01*
X230073553Y-51598631D01*
X230014845Y-51417949D01*
X230000568Y-51374008D01*
X230000566Y-51374005D01*
X230000566Y-51374003D01*
X229943864Y-51262720D01*
X229893343Y-51163567D01*
X229754517Y-50972490D01*
X229587510Y-50805483D01*
X229396433Y-50666657D01*
X229185996Y-50559433D01*
X228961368Y-50486446D01*
X228728097Y-50449500D01*
X228728092Y-50449500D01*
X228491908Y-50449500D01*
X228491899Y-50449500D01*
X228480904Y-50451241D01*
X228411611Y-50442283D01*
X228358162Y-50397283D01*
X228337526Y-50330531D01*
X228356255Y-50263218D01*
X228373826Y-50241092D01*
X229148102Y-49466819D01*
X229209425Y-49433334D01*
X229235783Y-49430500D01*
X230226613Y-49430500D01*
X230226616Y-49430500D01*
X230297196Y-49424086D01*
X230459606Y-49373478D01*
X230605185Y-49285472D01*
X230725472Y-49165185D01*
X230813478Y-49019606D01*
X230864086Y-48857196D01*
X230870500Y-48786616D01*
X230870500Y-46973384D01*
X230864086Y-46902804D01*
X230813478Y-46740394D01*
X230725472Y-46594815D01*
X230725470Y-46594813D01*
X230725469Y-46594811D01*
X230605188Y-46474530D01*
X230603765Y-46473670D01*
X230459606Y-46386522D01*
X230297196Y-46335914D01*
X230297194Y-46335913D01*
X230297192Y-46335913D01*
X230247778Y-46331423D01*
X230226616Y-46329500D01*
X228413384Y-46329500D01*
X228394145Y-46331248D01*
X228342807Y-46335913D01*
X228180393Y-46386522D01*
X228034811Y-46474530D01*
X227914530Y-46594811D01*
X227826522Y-46740393D01*
X227775913Y-46902807D01*
X227769500Y-46973386D01*
X227769500Y-47964217D01*
X227749815Y-48031256D01*
X227733181Y-48051898D01*
X226991899Y-48793181D01*
X226930576Y-48826666D01*
X226904218Y-48829500D01*
X226474698Y-48829500D01*
X226407659Y-48809815D01*
X226387017Y-48793181D01*
X226375428Y-48781592D01*
X226375426Y-48781590D01*
X226200395Y-48654422D01*
X226007622Y-48556199D01*
X225801866Y-48489345D01*
X225631468Y-48462357D01*
X225588175Y-48455500D01*
X225371825Y-48455500D01*
X225328532Y-48462357D01*
X225158135Y-48489345D01*
X225158132Y-48489345D01*
X224952377Y-48556199D01*
X224759604Y-48654422D01*
X224659742Y-48726976D01*
X224584574Y-48781590D01*
X224584572Y-48781592D01*
X224584571Y-48781592D01*
X224431592Y-48934571D01*
X224431592Y-48934572D01*
X224431590Y-48934574D01*
X224376976Y-49009742D01*
X224304422Y-49109604D01*
X224206199Y-49302377D01*
X224139345Y-49508132D01*
X224139345Y-49508135D01*
X224105500Y-49721825D01*
X211614500Y-49721825D01*
X211580655Y-49508137D01*
X211580654Y-49508133D01*
X211580654Y-49508132D01*
X211513800Y-49302377D01*
X211510462Y-49295825D01*
X211415578Y-49109605D01*
X211288410Y-48934574D01*
X211135426Y-48781590D01*
X210968507Y-48660316D01*
X210925844Y-48604988D01*
X210919865Y-48535375D01*
X210952471Y-48473580D01*
X210968503Y-48459687D01*
X211135426Y-48338410D01*
X211288410Y-48185426D01*
X211415578Y-48010395D01*
X211513799Y-47817625D01*
X211554108Y-47693566D01*
X211580654Y-47611867D01*
X211580654Y-47611866D01*
X211580655Y-47611863D01*
X211614500Y-47398175D01*
X211614500Y-47181825D01*
X211580655Y-46968137D01*
X211580654Y-46968133D01*
X211580654Y-46968132D01*
X211513800Y-46762377D01*
X211437675Y-46612973D01*
X211415578Y-46569605D01*
X211288410Y-46394574D01*
X211135426Y-46241590D01*
X210968507Y-46120316D01*
X210925844Y-46064988D01*
X210919865Y-45995375D01*
X210952471Y-45933580D01*
X210968503Y-45919687D01*
X211135426Y-45798410D01*
X211288410Y-45645426D01*
X211415578Y-45470395D01*
X211513799Y-45277625D01*
X211551493Y-45161614D01*
X211580654Y-45071867D01*
X211580654Y-45071866D01*
X211580655Y-45071863D01*
X211614500Y-44858175D01*
X211614500Y-44641825D01*
X224105500Y-44641825D01*
X224105500Y-44858174D01*
X224139345Y-45071864D01*
X224139345Y-45071867D01*
X224206199Y-45277622D01*
X224289190Y-45440500D01*
X224304422Y-45470395D01*
X224431590Y-45645426D01*
X224584574Y-45798410D01*
X224759605Y-45925578D01*
X224907804Y-46001089D01*
X224952377Y-46023800D01*
X225158133Y-46090654D01*
X225158134Y-46090654D01*
X225158137Y-46090655D01*
X225371825Y-46124500D01*
X225371826Y-46124500D01*
X225588174Y-46124500D01*
X225588175Y-46124500D01*
X225801863Y-46090655D01*
X225801866Y-46090654D01*
X225801867Y-46090654D01*
X226007622Y-46023800D01*
X226007622Y-46023799D01*
X226007625Y-46023799D01*
X226200395Y-45925578D01*
X226375426Y-45798410D01*
X226528410Y-45645426D01*
X226640161Y-45491613D01*
X226695491Y-45448949D01*
X226740479Y-45440500D01*
X227816038Y-45440500D01*
X227883077Y-45460185D01*
X227905349Y-45479623D01*
X227905762Y-45479211D01*
X228087345Y-45660794D01*
X228087350Y-45660798D01*
X228260803Y-45786818D01*
X228291155Y-45808870D01*
X228434184Y-45881747D01*
X228515616Y-45923239D01*
X228515618Y-45923239D01*
X228515621Y-45923241D01*
X228755215Y-46001090D01*
X229004038Y-46040500D01*
X229004039Y-46040500D01*
X229255961Y-46040500D01*
X229255962Y-46040500D01*
X229504785Y-46001090D01*
X229744379Y-45923241D01*
X229968845Y-45808870D01*
X230172656Y-45660793D01*
X230350793Y-45482656D01*
X230498870Y-45278845D01*
X230613241Y-45054379D01*
X230691090Y-44814785D01*
X230730500Y-44565962D01*
X230730500Y-44314038D01*
X230691090Y-44065215D01*
X230613241Y-43825621D01*
X230613239Y-43825618D01*
X230613239Y-43825616D01*
X230548491Y-43698542D01*
X230498870Y-43601155D01*
X230429161Y-43505208D01*
X230350798Y-43397350D01*
X230350794Y-43397345D01*
X230172654Y-43219205D01*
X230172649Y-43219201D01*
X229968848Y-43071132D01*
X229968847Y-43071131D01*
X229968845Y-43071130D01*
X229898747Y-43035413D01*
X229744383Y-42956760D01*
X229504785Y-42878910D01*
X229345187Y-42853632D01*
X229255962Y-42839500D01*
X229004038Y-42839500D01*
X228914813Y-42853632D01*
X228755214Y-42878910D01*
X228515616Y-42956760D01*
X228291151Y-43071132D01*
X228087350Y-43219201D01*
X228087345Y-43219205D01*
X227905762Y-43400789D01*
X227904687Y-43399714D01*
X227851820Y-43434225D01*
X227816038Y-43439500D01*
X226421829Y-43439500D01*
X226354790Y-43419815D01*
X226318727Y-43384390D01*
X226257142Y-43292222D01*
X226257136Y-43292214D01*
X226117785Y-43152863D01*
X226117781Y-43152860D01*
X225953920Y-43043371D01*
X225953907Y-43043364D01*
X225771839Y-42967950D01*
X225771829Y-42967947D01*
X225578543Y-42929500D01*
X225578541Y-42929500D01*
X225381459Y-42929500D01*
X225381457Y-42929500D01*
X225188170Y-42967947D01*
X225188160Y-42967950D01*
X225006092Y-43043364D01*
X225006079Y-43043371D01*
X224842218Y-43152860D01*
X224842214Y-43152863D01*
X224702863Y-43292214D01*
X224702860Y-43292218D01*
X224593371Y-43456079D01*
X224593364Y-43456092D01*
X224517950Y-43638160D01*
X224517947Y-43638170D01*
X224492994Y-43763615D01*
X224460609Y-43825526D01*
X224459060Y-43827103D01*
X224431592Y-43854571D01*
X224304422Y-44029604D01*
X224206199Y-44222377D01*
X224139345Y-44428132D01*
X224139345Y-44428135D01*
X224105500Y-44641825D01*
X211614500Y-44641825D01*
X211580655Y-44428137D01*
X211580654Y-44428133D01*
X211580654Y-44428132D01*
X211513800Y-44222377D01*
X211510041Y-44215000D01*
X211415578Y-44029605D01*
X211288410Y-43854574D01*
X211135426Y-43701590D01*
X210960395Y-43574422D01*
X210940955Y-43564517D01*
X210767622Y-43476199D01*
X210561866Y-43409345D01*
X210401597Y-43383961D01*
X210348175Y-43375500D01*
X210131825Y-43375500D01*
X210075696Y-43384390D01*
X209918135Y-43409345D01*
X209918132Y-43409345D01*
X209712377Y-43476199D01*
X209519604Y-43574422D01*
X209431871Y-43638165D01*
X209344574Y-43701590D01*
X209344572Y-43701592D01*
X209344571Y-43701592D01*
X209332983Y-43713181D01*
X209271660Y-43746666D01*
X209245302Y-43749500D01*
X208505783Y-43749500D01*
X208438744Y-43729815D01*
X208418102Y-43713181D01*
X208278255Y-43573334D01*
X208137981Y-43433061D01*
X208104497Y-43371739D01*
X208109481Y-43302048D01*
X208125346Y-43272495D01*
X208164062Y-43219207D01*
X208173343Y-43206433D01*
X208280568Y-42995992D01*
X208353553Y-42771368D01*
X208382633Y-42587765D01*
X208390500Y-42538097D01*
X208390500Y-42301902D01*
X208353553Y-42068631D01*
X208280566Y-41844003D01*
X208224002Y-41732991D01*
X208173343Y-41633567D01*
X208034517Y-41442490D01*
X207894208Y-41302181D01*
X207860723Y-41240858D01*
X207865707Y-41171166D01*
X207907579Y-41115233D01*
X207973043Y-41090816D01*
X207981889Y-41090500D01*
X229054218Y-41090500D01*
X229121257Y-41110185D01*
G37*
%TD.AperFunction*%
%TA.AperFunction,Conductor*%
G36*
X195555897Y-49500185D02*
G01*
X195601652Y-49552989D01*
X195611596Y-49622147D01*
X195589176Y-49677385D01*
X195441132Y-49881151D01*
X195326760Y-50105616D01*
X195248910Y-50345214D01*
X195211147Y-50583642D01*
X195209500Y-50594038D01*
X195209500Y-50845962D01*
X195213294Y-50869917D01*
X195248910Y-51094785D01*
X195326760Y-51334383D01*
X195441132Y-51558849D01*
X195566182Y-51730967D01*
X195589662Y-51796774D01*
X195573836Y-51864827D01*
X195553545Y-51891533D01*
X194757299Y-52687780D01*
X193982220Y-53462859D01*
X193982218Y-53462861D01*
X193935264Y-53509815D01*
X193842859Y-53602219D01*
X193733371Y-53766080D01*
X193733364Y-53766093D01*
X193683451Y-53886596D01*
X193683451Y-53886598D01*
X193660170Y-53942804D01*
X193657949Y-53948165D01*
X193657948Y-53948168D01*
X193657947Y-53948172D01*
X193619500Y-54141456D01*
X193619500Y-54141459D01*
X193619500Y-65718541D01*
X193625857Y-65750500D01*
X193657949Y-65911836D01*
X193680038Y-65965165D01*
X193683383Y-65973240D01*
X193733366Y-66093911D01*
X193733371Y-66093920D01*
X193842859Y-66257780D01*
X193842860Y-66257781D01*
X193842861Y-66257782D01*
X193982218Y-66397139D01*
X193982219Y-66397139D01*
X193989286Y-66404206D01*
X193989285Y-66404206D01*
X193989289Y-66404209D01*
X194992215Y-67407137D01*
X194992219Y-67407140D01*
X195156079Y-67516628D01*
X195156085Y-67516631D01*
X195156086Y-67516632D01*
X195338165Y-67592052D01*
X195499389Y-67624121D01*
X195531457Y-67630499D01*
X195531458Y-67630500D01*
X195531459Y-67630500D01*
X195531460Y-67630500D01*
X195728540Y-67630500D01*
X198097111Y-67630500D01*
X198164150Y-67650185D01*
X198184792Y-67666819D01*
X198292490Y-67774517D01*
X198483567Y-67913343D01*
X198550463Y-67947428D01*
X198694003Y-68020566D01*
X198694005Y-68020566D01*
X198694008Y-68020568D01*
X198760102Y-68042043D01*
X198817777Y-68081481D01*
X198844975Y-68145840D01*
X198833060Y-68214686D01*
X198794669Y-68260292D01*
X198727345Y-68309205D01*
X198549205Y-68487345D01*
X198549201Y-68487350D01*
X198401132Y-68691151D01*
X198286760Y-68915616D01*
X198208910Y-69155214D01*
X198208910Y-69155215D01*
X198169500Y-69404038D01*
X198169500Y-69655962D01*
X198182171Y-69735961D01*
X198208910Y-69904785D01*
X198286760Y-70144383D01*
X198345765Y-70260185D01*
X198396334Y-70359433D01*
X198401132Y-70368848D01*
X198534645Y-70552615D01*
X198558125Y-70618421D01*
X198542299Y-70686475D01*
X198492193Y-70735170D01*
X198434327Y-70749500D01*
X195931458Y-70749500D01*
X195911761Y-70753418D01*
X195893165Y-70757117D01*
X195868974Y-70759500D01*
X194085783Y-70759500D01*
X194018744Y-70739815D01*
X193998102Y-70723181D01*
X192986819Y-69711898D01*
X192953334Y-69650575D01*
X192950500Y-69624217D01*
X192950500Y-50645782D01*
X192970185Y-50578743D01*
X192986819Y-50558101D01*
X194028101Y-49516819D01*
X194089424Y-49483334D01*
X194115782Y-49480500D01*
X195488858Y-49480500D01*
X195555897Y-49500185D01*
G37*
%TD.AperFunction*%
%TA.AperFunction,Conductor*%
G36*
X204963257Y-39609185D02*
G01*
X205009012Y-39661989D01*
X205018956Y-39731147D01*
X204989931Y-39794703D01*
X204983901Y-39801178D01*
X203792221Y-40992858D01*
X203792218Y-40992861D01*
X203755647Y-41029432D01*
X203652859Y-41132219D01*
X203543371Y-41296080D01*
X203543364Y-41296093D01*
X203520383Y-41351577D01*
X203471850Y-41468747D01*
X203471849Y-41468751D01*
X203467948Y-41478167D01*
X203467947Y-41478171D01*
X203429500Y-41671454D01*
X203429500Y-49424218D01*
X203409815Y-49491257D01*
X203393181Y-49511899D01*
X202421899Y-50483181D01*
X202360576Y-50516666D01*
X202334218Y-50519500D01*
X200442889Y-50519500D01*
X200375850Y-50499815D01*
X200355208Y-50483181D01*
X200247512Y-50375485D01*
X200247510Y-50375483D01*
X200056433Y-50236657D01*
X200037753Y-50227139D01*
X199845995Y-50129433D01*
X199845992Y-50129432D01*
X199805593Y-50116305D01*
X199747919Y-50076868D01*
X199720721Y-50012509D01*
X199732636Y-49943662D01*
X199779881Y-49892187D01*
X199805593Y-49880445D01*
X199835992Y-49870568D01*
X200046433Y-49763343D01*
X200237510Y-49624517D01*
X200404517Y-49457510D01*
X200543343Y-49266433D01*
X200650568Y-49055992D01*
X200723553Y-48831368D01*
X200730641Y-48786616D01*
X200760500Y-48598097D01*
X200760500Y-48361902D01*
X200723553Y-48128631D01*
X200663426Y-47943580D01*
X200650568Y-47904008D01*
X200650566Y-47904005D01*
X200650566Y-47904003D01*
X200577447Y-47760500D01*
X200543343Y-47693567D01*
X200404517Y-47502490D01*
X200237510Y-47335483D01*
X200046433Y-47196657D01*
X200017324Y-47181825D01*
X199835996Y-47089433D01*
X199611368Y-47016446D01*
X199378097Y-46979500D01*
X199378092Y-46979500D01*
X199141908Y-46979500D01*
X199141903Y-46979500D01*
X198908631Y-47016446D01*
X198684003Y-47089433D01*
X198473566Y-47196657D01*
X198401979Y-47248669D01*
X198282490Y-47335483D01*
X198282488Y-47335485D01*
X198282487Y-47335485D01*
X198174792Y-47443181D01*
X198113469Y-47476666D01*
X198087111Y-47479500D01*
X193551455Y-47479500D01*
X193459111Y-47497868D01*
X193459099Y-47497871D01*
X193454812Y-47498724D01*
X193358164Y-47517949D01*
X193311836Y-47537139D01*
X193304631Y-47540123D01*
X193304625Y-47540125D01*
X193176092Y-47593364D01*
X193176079Y-47593371D01*
X193012219Y-47702859D01*
X192970003Y-47745076D01*
X192872861Y-47842218D01*
X191512181Y-49202898D01*
X191450858Y-49236383D01*
X191381166Y-49231399D01*
X191325233Y-49189527D01*
X191300816Y-49124063D01*
X191300500Y-49115217D01*
X191300500Y-46534309D01*
X191320185Y-46467270D01*
X191336819Y-46446628D01*
X194176628Y-43606819D01*
X194237951Y-43573334D01*
X194264309Y-43570500D01*
X198260434Y-43570500D01*
X198327473Y-43590185D01*
X198333319Y-43594182D01*
X198448812Y-43678092D01*
X198483567Y-43703343D01*
X198593130Y-43759168D01*
X198694003Y-43810566D01*
X198694005Y-43810566D01*
X198694008Y-43810568D01*
X198814412Y-43849689D01*
X198918631Y-43883553D01*
X199151903Y-43920500D01*
X199151908Y-43920500D01*
X199388097Y-43920500D01*
X199621368Y-43883553D01*
X199845992Y-43810568D01*
X200056433Y-43703343D01*
X200247510Y-43564517D01*
X200414517Y-43397510D01*
X200553343Y-43206433D01*
X200660568Y-42995992D01*
X200733553Y-42771368D01*
X200762633Y-42587765D01*
X200770500Y-42538097D01*
X200770500Y-42301902D01*
X200733553Y-42068631D01*
X200660566Y-41844003D01*
X200604002Y-41732991D01*
X200553343Y-41633567D01*
X200414517Y-41442490D01*
X200247510Y-41275483D01*
X200056433Y-41136657D01*
X200004479Y-41110185D01*
X199845996Y-41029433D01*
X199621368Y-40956446D01*
X199388097Y-40919500D01*
X199388092Y-40919500D01*
X199151908Y-40919500D01*
X199151903Y-40919500D01*
X198918631Y-40956446D01*
X198694003Y-41029433D01*
X198483563Y-41136659D01*
X198333319Y-41245818D01*
X198313274Y-41252970D01*
X198295369Y-41264477D01*
X198271342Y-41267931D01*
X198267513Y-41269298D01*
X198260434Y-41269500D01*
X198229265Y-41269500D01*
X198162226Y-41249815D01*
X198116471Y-41197011D01*
X198106527Y-41127853D01*
X198128947Y-41072615D01*
X198186890Y-40992862D01*
X198218870Y-40948845D01*
X198333241Y-40724379D01*
X198411090Y-40484785D01*
X198450500Y-40235962D01*
X198450500Y-39984038D01*
X198450500Y-39979166D01*
X198452028Y-39979166D01*
X198464979Y-39917415D01*
X198486564Y-39888354D01*
X198749102Y-39625816D01*
X198810424Y-39592334D01*
X198836782Y-39589500D01*
X204896218Y-39589500D01*
X204963257Y-39609185D01*
G37*
%TD.AperFunction*%
%TA.AperFunction,Conductor*%
G36*
X249442539Y-33020185D02*
G01*
X249488294Y-33072989D01*
X249499500Y-33124500D01*
X249499500Y-106875500D01*
X249479815Y-106942539D01*
X249427011Y-106988294D01*
X249375500Y-106999500D01*
X169377595Y-106999500D01*
X169310556Y-106979815D01*
X169264801Y-106927011D01*
X169253595Y-106875500D01*
X169253595Y-103459877D01*
X153257807Y-103459877D01*
X153190768Y-103440192D01*
X153145013Y-103387388D01*
X153135069Y-103318230D01*
X153164094Y-103254674D01*
X153179142Y-103240024D01*
X153201089Y-103222012D01*
X153353627Y-103096828D01*
X153596828Y-102853627D01*
X153815019Y-102587760D01*
X154006100Y-102301787D01*
X154168231Y-101998462D01*
X154299850Y-101680705D01*
X154399690Y-101351578D01*
X154466789Y-101014250D01*
X154500500Y-100671969D01*
X154500500Y-100328031D01*
X154466789Y-99985750D01*
X154399690Y-99648422D01*
X154299850Y-99319295D01*
X154168231Y-99001538D01*
X154077317Y-98831451D01*
X154006106Y-98698224D01*
X154006105Y-98698222D01*
X154006100Y-98698213D01*
X153815019Y-98412240D01*
X153596828Y-98146373D01*
X153596827Y-98146372D01*
X153596823Y-98146367D01*
X153353632Y-97903176D01*
X153087765Y-97684985D01*
X153087764Y-97684984D01*
X153087760Y-97684981D01*
X152801787Y-97493900D01*
X152801782Y-97493897D01*
X152801775Y-97493893D01*
X152498469Y-97331772D01*
X152498464Y-97331770D01*
X152180706Y-97200150D01*
X151851572Y-97100308D01*
X151514248Y-97033210D01*
X151514249Y-97033210D01*
X151256456Y-97007821D01*
X151171969Y-96999500D01*
X150828031Y-96999500D01*
X150749966Y-97007188D01*
X150485750Y-97033210D01*
X150148427Y-97100308D01*
X149819293Y-97200150D01*
X149501535Y-97331770D01*
X149501530Y-97331772D01*
X149198224Y-97493893D01*
X149198206Y-97493904D01*
X148912248Y-97684975D01*
X148912234Y-97684985D01*
X148646367Y-97903176D01*
X148403176Y-98146367D01*
X148184985Y-98412234D01*
X148184975Y-98412248D01*
X147993904Y-98698206D01*
X147993893Y-98698224D01*
X147831772Y-99001530D01*
X147831770Y-99001535D01*
X147700150Y-99319293D01*
X147600308Y-99648427D01*
X147533210Y-99985750D01*
X147499500Y-100328034D01*
X147499500Y-100671965D01*
X147533210Y-101014249D01*
X147600308Y-101351572D01*
X147689645Y-101646077D01*
X147700150Y-101680705D01*
X147813952Y-101955449D01*
X147831770Y-101998464D01*
X147831772Y-101998469D01*
X147993893Y-102301775D01*
X147993904Y-102301793D01*
X148184975Y-102587751D01*
X148184985Y-102587765D01*
X148403176Y-102853632D01*
X148646367Y-103096823D01*
X148820858Y-103240024D01*
X148860192Y-103297769D01*
X148862063Y-103367614D01*
X148825876Y-103427382D01*
X148763120Y-103458098D01*
X148742193Y-103459877D01*
X145624500Y-103459877D01*
X145557461Y-103440192D01*
X145511706Y-103387388D01*
X145500500Y-103335877D01*
X145500500Y-92588549D01*
X154489500Y-92588549D01*
X154489500Y-92811450D01*
X154489501Y-92811466D01*
X154518594Y-93032452D01*
X154518595Y-93032457D01*
X154518596Y-93032463D01*
X154568877Y-93220115D01*
X154576290Y-93247780D01*
X154576293Y-93247790D01*
X154655149Y-93438164D01*
X154661595Y-93453726D01*
X154773052Y-93646774D01*
X154773057Y-93646780D01*
X154773058Y-93646782D01*
X154908751Y-93823622D01*
X154908757Y-93823629D01*
X155066370Y-93981242D01*
X155066376Y-93981247D01*
X155243226Y-94116948D01*
X155436274Y-94228405D01*
X155642219Y-94313710D01*
X155857537Y-94371404D01*
X156078543Y-94400500D01*
X156078550Y-94400500D01*
X158301450Y-94400500D01*
X158301457Y-94400500D01*
X158522463Y-94371404D01*
X158737781Y-94313710D01*
X158943726Y-94228405D01*
X159136774Y-94116948D01*
X159313624Y-93981247D01*
X159471247Y-93823624D01*
X159606948Y-93646774D01*
X159718405Y-93453726D01*
X159803710Y-93247781D01*
X159861404Y-93032463D01*
X159890500Y-92811457D01*
X159890500Y-92588543D01*
X159861404Y-92367537D01*
X159803710Y-92152219D01*
X159718405Y-91946274D01*
X159606948Y-91753226D01*
X159471247Y-91576376D01*
X159471242Y-91576370D01*
X159313629Y-91418757D01*
X159313622Y-91418751D01*
X159136782Y-91283058D01*
X159136780Y-91283057D01*
X159136774Y-91283052D01*
X158943726Y-91171595D01*
X158943722Y-91171593D01*
X158737790Y-91086293D01*
X158737783Y-91086291D01*
X158737781Y-91086290D01*
X158522463Y-91028596D01*
X158522457Y-91028595D01*
X158522452Y-91028594D01*
X158301466Y-90999501D01*
X158301463Y-90999500D01*
X158301457Y-90999500D01*
X156078543Y-90999500D01*
X156078537Y-90999500D01*
X156078533Y-90999501D01*
X155857547Y-91028594D01*
X155857540Y-91028595D01*
X155857537Y-91028596D01*
X155758197Y-91055214D01*
X155642219Y-91086290D01*
X155642209Y-91086293D01*
X155436277Y-91171593D01*
X155436273Y-91171595D01*
X155243226Y-91283052D01*
X155243217Y-91283058D01*
X155066377Y-91418751D01*
X155066370Y-91418757D01*
X154908757Y-91576370D01*
X154908751Y-91576377D01*
X154773058Y-91753217D01*
X154773052Y-91753226D01*
X154661595Y-91946273D01*
X154661593Y-91946277D01*
X154576293Y-92152209D01*
X154576290Y-92152219D01*
X154518597Y-92367534D01*
X154518594Y-92367547D01*
X154489501Y-92588533D01*
X154489500Y-92588549D01*
X145500500Y-92588549D01*
X145500500Y-81500000D01*
X157500000Y-81500000D01*
X179500000Y-81500000D01*
X179500000Y-69500000D01*
X157500000Y-69500000D01*
X157500000Y-81500000D01*
X145500500Y-81500000D01*
X145500500Y-49217973D01*
X150449500Y-49217973D01*
X150449500Y-49462027D01*
X150452744Y-49482508D01*
X150484204Y-49681140D01*
X150487679Y-49703076D01*
X150563096Y-49935185D01*
X150673499Y-50151864D01*
X150673896Y-50152642D01*
X150817339Y-50350076D01*
X150817343Y-50350081D01*
X150989581Y-50522319D01*
X151023066Y-50583642D01*
X151018082Y-50653334D01*
X150989581Y-50697681D01*
X150817343Y-50869918D01*
X150817339Y-50869923D01*
X150673896Y-51067357D01*
X150563097Y-51284812D01*
X150563096Y-51284814D01*
X150563096Y-51284815D01*
X150558782Y-51298092D01*
X150487678Y-51516927D01*
X150449500Y-51757973D01*
X150449500Y-52002026D01*
X150483672Y-52217781D01*
X150487679Y-52243076D01*
X150563096Y-52475185D01*
X150673499Y-52691864D01*
X150673896Y-52692642D01*
X150817339Y-52890076D01*
X150817343Y-52890081D01*
X150989581Y-53062319D01*
X151023066Y-53123642D01*
X151018082Y-53193334D01*
X150989581Y-53237681D01*
X150817343Y-53409918D01*
X150817339Y-53409923D01*
X150673896Y-53607357D01*
X150563097Y-53824812D01*
X150487678Y-54056927D01*
X150459793Y-54232985D01*
X150449500Y-54297973D01*
X150449500Y-54542027D01*
X150456802Y-54588132D01*
X150476195Y-54710574D01*
X150487679Y-54783076D01*
X150563096Y-55015185D01*
X150673499Y-55231864D01*
X150673896Y-55232642D01*
X150817339Y-55430076D01*
X150817343Y-55430081D01*
X150989581Y-55602319D01*
X151023066Y-55663642D01*
X151018082Y-55733334D01*
X150989581Y-55777681D01*
X150817343Y-55949918D01*
X150817339Y-55949923D01*
X150673896Y-56147357D01*
X150563097Y-56364812D01*
X150487678Y-56596927D01*
X150468215Y-56719812D01*
X150449500Y-56837973D01*
X150449500Y-57082027D01*
X150456802Y-57128132D01*
X150476195Y-57250574D01*
X150487679Y-57323076D01*
X150563096Y-57555185D01*
X150673499Y-57771864D01*
X150673896Y-57772642D01*
X150817339Y-57970076D01*
X150817343Y-57970081D01*
X150989581Y-58142319D01*
X151023066Y-58203642D01*
X151018082Y-58273334D01*
X150989581Y-58317681D01*
X150817343Y-58489918D01*
X150817339Y-58489923D01*
X150673896Y-58687357D01*
X150563097Y-58904812D01*
X150563096Y-58904814D01*
X150563096Y-58904815D01*
X150541246Y-58972062D01*
X150487678Y-59136927D01*
X150466072Y-59273342D01*
X150449500Y-59377973D01*
X150449500Y-59622027D01*
X150456802Y-59668132D01*
X150484892Y-59845485D01*
X150487679Y-59863076D01*
X150563096Y-60095185D01*
X150673499Y-60311864D01*
X150673896Y-60312642D01*
X150769551Y-60444301D01*
X150793031Y-60510107D01*
X150777205Y-60578161D01*
X150733385Y-60623301D01*
X150714817Y-60634526D01*
X150714810Y-60634531D01*
X150594530Y-60754811D01*
X150506522Y-60900393D01*
X150455913Y-61062807D01*
X150449500Y-61133386D01*
X150449500Y-62946613D01*
X150455913Y-63017192D01*
X150455913Y-63017194D01*
X150455914Y-63017196D01*
X150474481Y-63076781D01*
X150506522Y-63179606D01*
X150594530Y-63325188D01*
X150714811Y-63445469D01*
X150714813Y-63445470D01*
X150714815Y-63445472D01*
X150860394Y-63533478D01*
X151022804Y-63584086D01*
X151093384Y-63590500D01*
X151093387Y-63590500D01*
X152906613Y-63590500D01*
X152906616Y-63590500D01*
X152977196Y-63584086D01*
X153139606Y-63533478D01*
X153285185Y-63445472D01*
X153405472Y-63325185D01*
X153493478Y-63179606D01*
X153497177Y-63167735D01*
X153509681Y-63127610D01*
X153548418Y-63069462D01*
X153612443Y-63041488D01*
X153628066Y-63040500D01*
X155351493Y-63040500D01*
X155418532Y-63060185D01*
X155435340Y-63073730D01*
X155435435Y-63073620D01*
X155439130Y-63076775D01*
X155439139Y-63076784D01*
X155618908Y-63207394D01*
X155816895Y-63308273D01*
X156028226Y-63376939D01*
X156247697Y-63411700D01*
X156247698Y-63411700D01*
X157892302Y-63411700D01*
X157892303Y-63411700D01*
X158111774Y-63376939D01*
X158323105Y-63308273D01*
X158521092Y-63207394D01*
X158700861Y-63076784D01*
X158857984Y-62919661D01*
X158988594Y-62739892D01*
X159089473Y-62541905D01*
X159158139Y-62330574D01*
X159192900Y-62111103D01*
X159192900Y-61888897D01*
X159158139Y-61669426D01*
X159089473Y-61458095D01*
X158988594Y-61260108D01*
X158857984Y-61080339D01*
X158700861Y-60923216D01*
X158572997Y-60830317D01*
X158530332Y-60774988D01*
X158524353Y-60705375D01*
X158556959Y-60643580D01*
X158572998Y-60629682D01*
X158594282Y-60614218D01*
X158700861Y-60536784D01*
X158857984Y-60379661D01*
X158988594Y-60199892D01*
X159089473Y-60001905D01*
X159158139Y-59790574D01*
X159192900Y-59571103D01*
X159192900Y-59348897D01*
X159158139Y-59129426D01*
X159089473Y-58918095D01*
X158988594Y-58720108D01*
X158857984Y-58540339D01*
X158700861Y-58383216D01*
X158572997Y-58290317D01*
X158530332Y-58234988D01*
X158524353Y-58165375D01*
X158556959Y-58103580D01*
X158572998Y-58089682D01*
X158700861Y-57996784D01*
X158857984Y-57839661D01*
X158988594Y-57659892D01*
X159089473Y-57461905D01*
X159158139Y-57250574D01*
X159192900Y-57031103D01*
X159192900Y-56808897D01*
X159158139Y-56589426D01*
X159089473Y-56378095D01*
X158988594Y-56180108D01*
X158857984Y-56000339D01*
X158700861Y-55843216D01*
X158572997Y-55750317D01*
X158530332Y-55694988D01*
X158524353Y-55625375D01*
X158556959Y-55563580D01*
X158572998Y-55549682D01*
X158591835Y-55535996D01*
X158700861Y-55456784D01*
X158857984Y-55299661D01*
X158988594Y-55119892D01*
X159089473Y-54921905D01*
X159158139Y-54710574D01*
X159192900Y-54491103D01*
X159192900Y-54268897D01*
X159158139Y-54049426D01*
X159089473Y-53838095D01*
X158988594Y-53640108D01*
X158857984Y-53460339D01*
X158700861Y-53303216D01*
X158697582Y-53300834D01*
X158572998Y-53210318D01*
X158530332Y-53154988D01*
X158524353Y-53085375D01*
X158556959Y-53023580D01*
X158572998Y-53009682D01*
X158629955Y-52968300D01*
X158700861Y-52916784D01*
X158857984Y-52759661D01*
X158988594Y-52579892D01*
X159089473Y-52381905D01*
X159158139Y-52170574D01*
X159192900Y-51951103D01*
X159192900Y-51728897D01*
X159158139Y-51509426D01*
X159089473Y-51298095D01*
X158988594Y-51100108D01*
X158857984Y-50920339D01*
X158700861Y-50763216D01*
X158572997Y-50670317D01*
X158530332Y-50614988D01*
X158524353Y-50545375D01*
X158556959Y-50483580D01*
X158572998Y-50469682D01*
X158610709Y-50442283D01*
X158700861Y-50376784D01*
X158857984Y-50219661D01*
X158988594Y-50039892D01*
X159089473Y-49841905D01*
X159158139Y-49630574D01*
X159192900Y-49411103D01*
X159192900Y-49188897D01*
X159158139Y-48969426D01*
X159089473Y-48758095D01*
X158988594Y-48560108D01*
X158857984Y-48380339D01*
X158700861Y-48223216D01*
X158521092Y-48092606D01*
X158323105Y-47991727D01*
X158111774Y-47923061D01*
X158111772Y-47923060D01*
X158111771Y-47923060D01*
X157943179Y-47896358D01*
X157892303Y-47888300D01*
X156247697Y-47888300D01*
X156196820Y-47896358D01*
X156028229Y-47923060D01*
X155816892Y-47991728D01*
X155618907Y-48092606D01*
X155520294Y-48164253D01*
X155439139Y-48223216D01*
X155439137Y-48223218D01*
X155439136Y-48223218D01*
X155359174Y-48303181D01*
X155297851Y-48336666D01*
X155271493Y-48339500D01*
X153243601Y-48339500D01*
X153176562Y-48319815D01*
X153155920Y-48303182D01*
X153086683Y-48233945D01*
X153010083Y-48157345D01*
X153010079Y-48157342D01*
X153010075Y-48157338D01*
X152812642Y-48013896D01*
X152812641Y-48013895D01*
X152812639Y-48013894D01*
X152595185Y-47903096D01*
X152363076Y-47827679D01*
X152363074Y-47827678D01*
X152363072Y-47827678D01*
X152194769Y-47801021D01*
X152122027Y-47789500D01*
X151877973Y-47789500D01*
X151822093Y-47798350D01*
X151636927Y-47827678D01*
X151404812Y-47903097D01*
X151187357Y-48013896D01*
X150989923Y-48157339D01*
X150989918Y-48157343D01*
X150817343Y-48329918D01*
X150817339Y-48329923D01*
X150673896Y-48527357D01*
X150563097Y-48744812D01*
X150487678Y-48976927D01*
X150465369Y-49117782D01*
X150449500Y-49217973D01*
X145500500Y-49217973D01*
X145500500Y-44108897D01*
X154947100Y-44108897D01*
X154947100Y-44331102D01*
X154979702Y-44536947D01*
X154981861Y-44550574D01*
X155050527Y-44761905D01*
X155151406Y-44959892D01*
X155282016Y-45139661D01*
X155439139Y-45296784D01*
X155618908Y-45427394D01*
X155816895Y-45528273D01*
X156028226Y-45596939D01*
X156247697Y-45631700D01*
X156247698Y-45631700D01*
X157892302Y-45631700D01*
X157892303Y-45631700D01*
X158111774Y-45596939D01*
X158323105Y-45528273D01*
X158521092Y-45427394D01*
X158700861Y-45296784D01*
X158740826Y-45256819D01*
X158802149Y-45223334D01*
X158828507Y-45220500D01*
X159364218Y-45220500D01*
X159431257Y-45240185D01*
X159451899Y-45256819D01*
X160933181Y-46738101D01*
X160966666Y-46799424D01*
X160969500Y-46825782D01*
X160969500Y-49548544D01*
X161007947Y-49741830D01*
X161007950Y-49741841D01*
X161016857Y-49763341D01*
X161016859Y-49763346D01*
X161083364Y-49923906D01*
X161083371Y-49923919D01*
X161192860Y-50087782D01*
X161336537Y-50231459D01*
X161336559Y-50231479D01*
X184130582Y-73025502D01*
X184164067Y-73086825D01*
X184166901Y-73113183D01*
X184166901Y-76879534D01*
X184147216Y-76946573D01*
X184139003Y-76957895D01*
X184019666Y-77104250D01*
X183930163Y-77275594D01*
X183876983Y-77461451D01*
X183866901Y-77574863D01*
X183866901Y-78385136D01*
X183876983Y-78498548D01*
X183930163Y-78684405D01*
X184019667Y-78855753D01*
X184139002Y-79002103D01*
X184166112Y-79066499D01*
X184166901Y-79080464D01*
X184166901Y-81705945D01*
X184205348Y-81899234D01*
X184205350Y-81899238D01*
X184227439Y-81952565D01*
X184280767Y-82081312D01*
X184280772Y-82081321D01*
X184390260Y-82245181D01*
X184390261Y-82245182D01*
X184390262Y-82245183D01*
X184529619Y-82384540D01*
X184529620Y-82384540D01*
X184536687Y-82391607D01*
X184536686Y-82391607D01*
X184536690Y-82391610D01*
X185712215Y-83567137D01*
X185712219Y-83567140D01*
X185876079Y-83676628D01*
X185876085Y-83676631D01*
X185876086Y-83676632D01*
X186058165Y-83752052D01*
X186251455Y-83790500D01*
X186251458Y-83790501D01*
X186251460Y-83790501D01*
X186454655Y-83790501D01*
X186454675Y-83790500D01*
X187227876Y-83790500D01*
X187294915Y-83810185D01*
X187340670Y-83862989D01*
X187341309Y-83864411D01*
X187346721Y-83876669D01*
X187472457Y-84060220D01*
X187472462Y-84060226D01*
X187629773Y-84217537D01*
X187629779Y-84217542D01*
X187813329Y-84343277D01*
X187813330Y-84343277D01*
X187813331Y-84343278D01*
X187934509Y-84396783D01*
X188016857Y-84433143D01*
X188016861Y-84433144D01*
X188016864Y-84433145D01*
X188233422Y-84484079D01*
X188233427Y-84484079D01*
X188233433Y-84484081D01*
X188284808Y-84487647D01*
X188325904Y-84490500D01*
X188325908Y-84490500D01*
X188675500Y-84490500D01*
X188742539Y-84510185D01*
X188788294Y-84562989D01*
X188799500Y-84614500D01*
X188799500Y-87523865D01*
X188798521Y-87527197D01*
X188799318Y-87530577D01*
X188788747Y-87560482D01*
X188779815Y-87590904D01*
X188776850Y-87594144D01*
X188776034Y-87596453D01*
X188764485Y-87607656D01*
X188751511Y-87621836D01*
X188748328Y-87624305D01*
X188737125Y-87631888D01*
X188732175Y-87636837D01*
X188726010Y-87641621D01*
X188700446Y-87651661D01*
X188676340Y-87664820D01*
X188668391Y-87664250D01*
X188660976Y-87667163D01*
X188634044Y-87661789D01*
X188606649Y-87659826D01*
X188598745Y-87654745D01*
X188592458Y-87653491D01*
X188583838Y-87645164D01*
X188567979Y-87634970D01*
X188567423Y-87635644D01*
X188562868Y-87631882D01*
X188424800Y-87538436D01*
X188392777Y-87516763D01*
X188392773Y-87516761D01*
X188392771Y-87516760D01*
X188203968Y-87435909D01*
X188203961Y-87435907D01*
X188003268Y-87392250D01*
X188003267Y-87392249D01*
X188003263Y-87392249D01*
X187957118Y-87389500D01*
X187042882Y-87389500D01*
X186996737Y-87392249D01*
X186996732Y-87392249D01*
X186996731Y-87392250D01*
X186796038Y-87435907D01*
X186796031Y-87435909D01*
X186607228Y-87516760D01*
X186607218Y-87516766D01*
X186437131Y-87631882D01*
X186437122Y-87631890D01*
X186291890Y-87777122D01*
X186291882Y-87777131D01*
X186176766Y-87947218D01*
X186176760Y-87947228D01*
X186095909Y-88136031D01*
X186095907Y-88136038D01*
X186052250Y-88336731D01*
X186052249Y-88336737D01*
X186049500Y-88382882D01*
X186049500Y-89797118D01*
X186052249Y-89843263D01*
X186052249Y-89843267D01*
X186052250Y-89843268D01*
X186095907Y-90043961D01*
X186095909Y-90043968D01*
X186176760Y-90232771D01*
X186176763Y-90232777D01*
X186176766Y-90232781D01*
X186291882Y-90402868D01*
X186291890Y-90402877D01*
X186313181Y-90424168D01*
X186327884Y-90451095D01*
X186344477Y-90476914D01*
X186345368Y-90483114D01*
X186346666Y-90485491D01*
X186349500Y-90511849D01*
X186349500Y-90575500D01*
X186329815Y-90642539D01*
X186277011Y-90688294D01*
X186225500Y-90699500D01*
X184495681Y-90699500D01*
X184495657Y-90699499D01*
X184490546Y-90699499D01*
X184309453Y-90699499D01*
X184289185Y-90702709D01*
X184130646Y-90727819D01*
X184130589Y-90727829D01*
X183958366Y-90783786D01*
X183958360Y-90783788D01*
X183797002Y-90866006D01*
X183650505Y-90972441D01*
X183650500Y-90972445D01*
X183572761Y-91050185D01*
X183522447Y-91100499D01*
X183522444Y-91100502D01*
X182578564Y-92044383D01*
X181642417Y-92980530D01*
X181581094Y-93014015D01*
X181554736Y-93016849D01*
X171335672Y-93016849D01*
X171268633Y-92997164D01*
X171239570Y-92971210D01*
X171215571Y-92941777D01*
X171123700Y-92866867D01*
X171065751Y-92819615D01*
X171014468Y-92792827D01*
X170894405Y-92730111D01*
X170739845Y-92685886D01*
X170708552Y-92676932D01*
X170708551Y-92676931D01*
X170708548Y-92676931D01*
X170619662Y-92669029D01*
X170595138Y-92666849D01*
X170595136Y-92666849D01*
X170167915Y-92666849D01*
X170100876Y-92647164D01*
X170080234Y-92630530D01*
X165182730Y-87733026D01*
X165182699Y-87732997D01*
X164703328Y-87253625D01*
X164703315Y-87253611D01*
X164694742Y-87245038D01*
X164572151Y-87122447D01*
X164572147Y-87122444D01*
X164572143Y-87122440D01*
X164425647Y-87016006D01*
X164425646Y-87016005D01*
X164425644Y-87016004D01*
X164333096Y-86968848D01*
X164264289Y-86933788D01*
X164264286Y-86933787D01*
X164092060Y-86877829D01*
X164001257Y-86863447D01*
X163913196Y-86849499D01*
X163732104Y-86849499D01*
X163726993Y-86849499D01*
X163726969Y-86849500D01*
X162214500Y-86849500D01*
X162147461Y-86829815D01*
X162101706Y-86777011D01*
X162090500Y-86725500D01*
X162090500Y-85693386D01*
X162084355Y-85625765D01*
X162084086Y-85622804D01*
X162033478Y-85460394D01*
X161945472Y-85314815D01*
X161945470Y-85314813D01*
X161945469Y-85314811D01*
X161825188Y-85194530D01*
X161780407Y-85167459D01*
X161679606Y-85106522D01*
X161517196Y-85055914D01*
X161517194Y-85055913D01*
X161517192Y-85055913D01*
X161467778Y-85051423D01*
X161446616Y-85049500D01*
X159333384Y-85049500D01*
X159314145Y-85051248D01*
X159262807Y-85055913D01*
X159100393Y-85106522D01*
X158954811Y-85194530D01*
X158834530Y-85314811D01*
X158746522Y-85460393D01*
X158695913Y-85622807D01*
X158689500Y-85693386D01*
X158689500Y-90306613D01*
X158695913Y-90377192D01*
X158695913Y-90377194D01*
X158695914Y-90377196D01*
X158746522Y-90539606D01*
X158814987Y-90652861D01*
X158834530Y-90685188D01*
X158954811Y-90805469D01*
X158954813Y-90805470D01*
X158954815Y-90805472D01*
X159100394Y-90893478D01*
X159262804Y-90944086D01*
X159333384Y-90950500D01*
X159333387Y-90950500D01*
X161446613Y-90950500D01*
X161446616Y-90950500D01*
X161517196Y-90944086D01*
X161679606Y-90893478D01*
X161825185Y-90805472D01*
X161945472Y-90685185D01*
X162033478Y-90539606D01*
X162084086Y-90377196D01*
X162090500Y-90306616D01*
X162090500Y-89274500D01*
X162110185Y-89207461D01*
X162162989Y-89161706D01*
X162214500Y-89150500D01*
X163294736Y-89150500D01*
X163324176Y-89159144D01*
X163354163Y-89165668D01*
X163359178Y-89169422D01*
X163361775Y-89170185D01*
X163382417Y-89186819D01*
X163555647Y-89360049D01*
X163555676Y-89360080D01*
X168453181Y-94257582D01*
X168486666Y-94318905D01*
X168489500Y-94345263D01*
X168489500Y-94772485D01*
X168499582Y-94885897D01*
X168552762Y-95071754D01*
X168563088Y-95091522D01*
X168642266Y-95243100D01*
X168680116Y-95289519D01*
X168764428Y-95392920D01*
X168828783Y-95445394D01*
X168914249Y-95515083D01*
X169085594Y-95604586D01*
X169271448Y-95657766D01*
X169384862Y-95667849D01*
X169384870Y-95667849D01*
X170595130Y-95667849D01*
X170595138Y-95667849D01*
X170708552Y-95657766D01*
X170894406Y-95604586D01*
X171065751Y-95515083D01*
X171215571Y-95392920D01*
X171239570Y-95363488D01*
X171297191Y-95323971D01*
X171335672Y-95317849D01*
X181986970Y-95317849D01*
X181986994Y-95317850D01*
X181992105Y-95317850D01*
X182173196Y-95317850D01*
X182173197Y-95317850D01*
X182352060Y-95289520D01*
X182524290Y-95233560D01*
X182685645Y-95151345D01*
X182741478Y-95110780D01*
X182832152Y-95044902D01*
X182960204Y-94916850D01*
X182960205Y-94916848D01*
X182967265Y-94909788D01*
X182967270Y-94909781D01*
X184840234Y-93036819D01*
X184901557Y-93003334D01*
X184927915Y-93000500D01*
X187449448Y-93000500D01*
X187449454Y-93000501D01*
X187630547Y-93000501D01*
X187630553Y-93000500D01*
X188177818Y-93000500D01*
X188244857Y-93020185D01*
X188290612Y-93072989D01*
X188300556Y-93142147D01*
X188271531Y-93205703D01*
X188256772Y-93220115D01*
X188254625Y-93221887D01*
X188109390Y-93367122D01*
X188109382Y-93367131D01*
X187994266Y-93537218D01*
X187994260Y-93537228D01*
X187913409Y-93726031D01*
X187913407Y-93726038D01*
X187869750Y-93926731D01*
X187869749Y-93926737D01*
X187867000Y-93972882D01*
X187867000Y-95387118D01*
X187869749Y-95433263D01*
X187869749Y-95433267D01*
X187869750Y-95433268D01*
X187913407Y-95633961D01*
X187913409Y-95633968D01*
X187994260Y-95822771D01*
X187994263Y-95822777D01*
X187994266Y-95822781D01*
X188109382Y-95992868D01*
X188109387Y-95992873D01*
X188109388Y-95992875D01*
X188254625Y-96138112D01*
X188262502Y-96143443D01*
X188306987Y-96197319D01*
X188317000Y-96246134D01*
X188317000Y-99155500D01*
X188297315Y-99222539D01*
X188244511Y-99268294D01*
X188193000Y-99279500D01*
X187843404Y-99279500D01*
X187750938Y-99285918D01*
X187750922Y-99285920D01*
X187534364Y-99336854D01*
X187534348Y-99336860D01*
X187330831Y-99426721D01*
X187147279Y-99552457D01*
X187109999Y-99589738D01*
X187072716Y-99627020D01*
X187011396Y-99660504D01*
X186985037Y-99663338D01*
X182754500Y-99663338D01*
X182687461Y-99643653D01*
X182641706Y-99590849D01*
X182630500Y-99539338D01*
X182630500Y-98944869D01*
X182630500Y-98944862D01*
X182620417Y-98831448D01*
X182567237Y-98645594D01*
X182477734Y-98474249D01*
X182416652Y-98399339D01*
X182355571Y-98324428D01*
X182263700Y-98249518D01*
X182205751Y-98202266D01*
X182191082Y-98194604D01*
X182034405Y-98112762D01*
X181879845Y-98068537D01*
X181848552Y-98059583D01*
X181848551Y-98059582D01*
X181848548Y-98059582D01*
X181759662Y-98051680D01*
X181735138Y-98049500D01*
X180924862Y-98049500D01*
X180912599Y-98050590D01*
X180811451Y-98059582D01*
X180625594Y-98112762D01*
X180454250Y-98202265D01*
X180304428Y-98324428D01*
X180182265Y-98474250D01*
X180092762Y-98645594D01*
X180039582Y-98831451D01*
X180029500Y-98944863D01*
X180029500Y-99755136D01*
X180039582Y-99868548D01*
X180092762Y-100054405D01*
X180114941Y-100096864D01*
X180182266Y-100225751D01*
X180218792Y-100270546D01*
X180304432Y-100375575D01*
X180304954Y-100376097D01*
X180305149Y-100376454D01*
X180308403Y-100380445D01*
X180307659Y-100381051D01*
X180338439Y-100437420D01*
X180338890Y-100439587D01*
X180367946Y-100585666D01*
X180367949Y-100585675D01*
X180382846Y-100621639D01*
X180443364Y-100767745D01*
X180443371Y-100767758D01*
X180552860Y-100931619D01*
X180552863Y-100931623D01*
X180696537Y-101075297D01*
X180696559Y-101075317D01*
X180919735Y-101298493D01*
X180919764Y-101298524D01*
X181062214Y-101440974D01*
X181062218Y-101440977D01*
X181226082Y-101550468D01*
X181226084Y-101550468D01*
X181226086Y-101550470D01*
X181349620Y-101601639D01*
X181408164Y-101625889D01*
X181504812Y-101645113D01*
X181582434Y-101660553D01*
X181601458Y-101664338D01*
X181601459Y-101664338D01*
X181601460Y-101664338D01*
X181798540Y-101664338D01*
X186629380Y-101664338D01*
X186696419Y-101684023D01*
X186742174Y-101736827D01*
X186750086Y-101759949D01*
X186774354Y-101863133D01*
X186774360Y-101863151D01*
X186864221Y-102066668D01*
X186989957Y-102250220D01*
X186989962Y-102250226D01*
X187147273Y-102407537D01*
X187147279Y-102407542D01*
X187330829Y-102533277D01*
X187534357Y-102623143D01*
X187534361Y-102623144D01*
X187534364Y-102623145D01*
X187750922Y-102674079D01*
X187750927Y-102674079D01*
X187750933Y-102674081D01*
X187802308Y-102677647D01*
X187843404Y-102680500D01*
X187843408Y-102680500D01*
X189551718Y-102680500D01*
X189618757Y-102700185D01*
X189639398Y-102716818D01*
X190850360Y-103927781D01*
X190850361Y-103927782D01*
X190989718Y-104067139D01*
X191153586Y-104176632D01*
X191260245Y-104220811D01*
X191335664Y-104252051D01*
X191528954Y-104290499D01*
X191528957Y-104290500D01*
X191528959Y-104290500D01*
X232988542Y-104290500D01*
X233019566Y-104284328D01*
X233085188Y-104271275D01*
X233181836Y-104252051D01*
X233235165Y-104229961D01*
X233363914Y-104176632D01*
X233527782Y-104067139D01*
X233667139Y-103927782D01*
X233667140Y-103927779D01*
X233674206Y-103920714D01*
X233674209Y-103920710D01*
X237266885Y-100328034D01*
X239499500Y-100328034D01*
X239499500Y-100671965D01*
X239533210Y-101014249D01*
X239600308Y-101351572D01*
X239689645Y-101646077D01*
X239700150Y-101680705D01*
X239813952Y-101955449D01*
X239831770Y-101998464D01*
X239831772Y-101998469D01*
X239993893Y-102301775D01*
X239993904Y-102301793D01*
X240184975Y-102587751D01*
X240184985Y-102587765D01*
X240403176Y-102853632D01*
X240646367Y-103096823D01*
X240646372Y-103096827D01*
X240646373Y-103096828D01*
X240912240Y-103315019D01*
X241198213Y-103506100D01*
X241198222Y-103506105D01*
X241198224Y-103506106D01*
X241501530Y-103668227D01*
X241501532Y-103668227D01*
X241501538Y-103668231D01*
X241819295Y-103799850D01*
X242148422Y-103899690D01*
X242485750Y-103966789D01*
X242828031Y-104000500D01*
X242828034Y-104000500D01*
X243171966Y-104000500D01*
X243171969Y-104000500D01*
X243514250Y-103966789D01*
X243851578Y-103899690D01*
X244180705Y-103799850D01*
X244498462Y-103668231D01*
X244801787Y-103506100D01*
X245087760Y-103315019D01*
X245353627Y-103096828D01*
X245596828Y-102853627D01*
X245815019Y-102587760D01*
X246006100Y-102301787D01*
X246168231Y-101998462D01*
X246299850Y-101680705D01*
X246399690Y-101351578D01*
X246466789Y-101014250D01*
X246500500Y-100671969D01*
X246500500Y-100328031D01*
X246466789Y-99985750D01*
X246399690Y-99648422D01*
X246299850Y-99319295D01*
X246168231Y-99001538D01*
X246077317Y-98831451D01*
X246006106Y-98698224D01*
X246006105Y-98698222D01*
X246006100Y-98698213D01*
X245815019Y-98412240D01*
X245596828Y-98146373D01*
X245596827Y-98146372D01*
X245596823Y-98146367D01*
X245353632Y-97903176D01*
X245087765Y-97684985D01*
X245087764Y-97684984D01*
X245087760Y-97684981D01*
X244801787Y-97493900D01*
X244801782Y-97493897D01*
X244801775Y-97493893D01*
X244498469Y-97331772D01*
X244498464Y-97331770D01*
X244180706Y-97200150D01*
X243851572Y-97100308D01*
X243514248Y-97033210D01*
X243514249Y-97033210D01*
X243256456Y-97007821D01*
X243171969Y-96999500D01*
X242828031Y-96999500D01*
X242749966Y-97007188D01*
X242485750Y-97033210D01*
X242148427Y-97100308D01*
X241819293Y-97200150D01*
X241501535Y-97331770D01*
X241501530Y-97331772D01*
X241198224Y-97493893D01*
X241198206Y-97493904D01*
X240912248Y-97684975D01*
X240912234Y-97684985D01*
X240646367Y-97903176D01*
X240403176Y-98146367D01*
X240184985Y-98412234D01*
X240184975Y-98412248D01*
X239993904Y-98698206D01*
X239993893Y-98698224D01*
X239831772Y-99001530D01*
X239831770Y-99001535D01*
X239700150Y-99319293D01*
X239600308Y-99648427D01*
X239533210Y-99985750D01*
X239499500Y-100328034D01*
X237266885Y-100328034D01*
X247387778Y-90207141D01*
X247387782Y-90207139D01*
X247527139Y-90067782D01*
X247636632Y-89903914D01*
X247712051Y-89721835D01*
X247750500Y-89528541D01*
X247750500Y-75476675D01*
X247750501Y-75476654D01*
X247750501Y-75273457D01*
X247750500Y-75273455D01*
X247715635Y-75098180D01*
X247712052Y-75080165D01*
X247636632Y-74898086D01*
X247636631Y-74898085D01*
X247636628Y-74898079D01*
X247527140Y-74734219D01*
X247527137Y-74734215D01*
X241645101Y-68852181D01*
X241611616Y-68790858D01*
X241616600Y-68721166D01*
X241658472Y-68665233D01*
X241723936Y-68640816D01*
X241732782Y-68640500D01*
X243076613Y-68640500D01*
X243076616Y-68640500D01*
X243147196Y-68634086D01*
X243309606Y-68583478D01*
X243455185Y-68495472D01*
X243575472Y-68375185D01*
X243663478Y-68229606D01*
X243668127Y-68214686D01*
X243679681Y-68177610D01*
X243718418Y-68119462D01*
X243782443Y-68091488D01*
X243798066Y-68090500D01*
X243978543Y-68090500D01*
X244017935Y-68082664D01*
X244095697Y-68067196D01*
X244171836Y-68052051D01*
X244225165Y-68029961D01*
X244353914Y-67976632D01*
X244517782Y-67867139D01*
X244657139Y-67727782D01*
X244657140Y-67727779D01*
X244664206Y-67720714D01*
X244664209Y-67720710D01*
X246259778Y-66125141D01*
X246259782Y-66125139D01*
X246399139Y-65985782D01*
X246508632Y-65821914D01*
X246572406Y-65667949D01*
X246584051Y-65639836D01*
X246605998Y-65529500D01*
X246622500Y-65446541D01*
X246622500Y-47540725D01*
X246622500Y-47540722D01*
X246603097Y-47443181D01*
X246590430Y-47379500D01*
X246584051Y-47347430D01*
X246544026Y-47250801D01*
X246521599Y-47196657D01*
X246508635Y-47165358D01*
X246508628Y-47165345D01*
X246399139Y-47001484D01*
X246399136Y-47001480D01*
X246255463Y-46857807D01*
X246255440Y-46857786D01*
X244119520Y-44721863D01*
X244119515Y-44721859D01*
X244061150Y-44682862D01*
X244061149Y-44682861D01*
X243955654Y-44612371D01*
X243955642Y-44612364D01*
X243806465Y-44550574D01*
X243806463Y-44550573D01*
X243773575Y-44536950D01*
X243773563Y-44536947D01*
X243580279Y-44498500D01*
X243580276Y-44498500D01*
X237056783Y-44498500D01*
X237027342Y-44489855D01*
X236997356Y-44483332D01*
X236992340Y-44479577D01*
X236989744Y-44478815D01*
X236969102Y-44462181D01*
X236818819Y-44311898D01*
X236785334Y-44250575D01*
X236782500Y-44224217D01*
X236782500Y-42068631D01*
X236782501Y-42007991D01*
X236744052Y-41814696D01*
X236668632Y-41632617D01*
X236668631Y-41632616D01*
X236668628Y-41632610D01*
X236559138Y-41468747D01*
X236559137Y-41468746D01*
X235503060Y-40412668D01*
X235418426Y-40328034D01*
X239999500Y-40328034D01*
X239999500Y-40671965D01*
X240033210Y-41014249D01*
X240100308Y-41351572D01*
X240200150Y-41680706D01*
X240331770Y-41998464D01*
X240331772Y-41998469D01*
X240493893Y-42301775D01*
X240493904Y-42301793D01*
X240684975Y-42587751D01*
X240684985Y-42587765D01*
X240903176Y-42853632D01*
X241146367Y-43096823D01*
X241146372Y-43096827D01*
X241146373Y-43096828D01*
X241412240Y-43315019D01*
X241698213Y-43506100D01*
X241698222Y-43506105D01*
X241698224Y-43506106D01*
X242001530Y-43668227D01*
X242001532Y-43668227D01*
X242001538Y-43668231D01*
X242319295Y-43799850D01*
X242648422Y-43899690D01*
X242985750Y-43966789D01*
X243328031Y-44000500D01*
X243328034Y-44000500D01*
X243671966Y-44000500D01*
X243671969Y-44000500D01*
X244014250Y-43966789D01*
X244351578Y-43899690D01*
X244680705Y-43799850D01*
X244998462Y-43668231D01*
X245301787Y-43506100D01*
X245587760Y-43315019D01*
X245853627Y-43096828D01*
X246096828Y-42853627D01*
X246315019Y-42587760D01*
X246506100Y-42301787D01*
X246668231Y-41998462D01*
X246799850Y-41680705D01*
X246899690Y-41351578D01*
X246966789Y-41014250D01*
X247000500Y-40671969D01*
X247000500Y-40328031D01*
X246966789Y-39985750D01*
X246899690Y-39648422D01*
X246799850Y-39319295D01*
X246668231Y-39001538D01*
X246506100Y-38698213D01*
X246315019Y-38412240D01*
X246096828Y-38146373D01*
X246096827Y-38146372D01*
X246096823Y-38146367D01*
X245853632Y-37903176D01*
X245587765Y-37684985D01*
X245587764Y-37684984D01*
X245587760Y-37684981D01*
X245301787Y-37493900D01*
X245301782Y-37493897D01*
X245301775Y-37493893D01*
X244998469Y-37331772D01*
X244998464Y-37331770D01*
X244680706Y-37200150D01*
X244351572Y-37100308D01*
X244014248Y-37033210D01*
X244014249Y-37033210D01*
X243756456Y-37007821D01*
X243671969Y-36999500D01*
X243328031Y-36999500D01*
X243249966Y-37007188D01*
X242985750Y-37033210D01*
X242648427Y-37100308D01*
X242319293Y-37200150D01*
X242001535Y-37331770D01*
X242001530Y-37331772D01*
X241698224Y-37493893D01*
X241698206Y-37493904D01*
X241412248Y-37684975D01*
X241412234Y-37684985D01*
X241146367Y-37903176D01*
X240903176Y-38146367D01*
X240684985Y-38412234D01*
X240684975Y-38412248D01*
X240493904Y-38698206D01*
X240493893Y-38698224D01*
X240331772Y-39001530D01*
X240331770Y-39001535D01*
X240200150Y-39319293D01*
X240100308Y-39648427D01*
X240033210Y-39985750D01*
X239999500Y-40328034D01*
X235418426Y-40328034D01*
X235212421Y-40122029D01*
X235212390Y-40122000D01*
X231401251Y-36310861D01*
X231360420Y-36283579D01*
X231237388Y-36201371D01*
X231237375Y-36201364D01*
X231055307Y-36125950D01*
X231055297Y-36125947D01*
X230862011Y-36087500D01*
X230862009Y-36087500D01*
X230619362Y-36087500D01*
X230552323Y-36067815D01*
X230506568Y-36015011D01*
X230496624Y-35945853D01*
X230508877Y-35907205D01*
X230613239Y-35702383D01*
X230613239Y-35702382D01*
X230613241Y-35702379D01*
X230691090Y-35462785D01*
X230730500Y-35213962D01*
X230730500Y-34962038D01*
X230691090Y-34713215D01*
X230613241Y-34473621D01*
X230613239Y-34473618D01*
X230613239Y-34473616D01*
X230571747Y-34392184D01*
X230498870Y-34249155D01*
X230395388Y-34106724D01*
X230350798Y-34045350D01*
X230350794Y-34045345D01*
X230172654Y-33867205D01*
X230172649Y-33867201D01*
X229968848Y-33719132D01*
X229968847Y-33719131D01*
X229968845Y-33719130D01*
X229898747Y-33683413D01*
X229744383Y-33604760D01*
X229504785Y-33526910D01*
X229255962Y-33487500D01*
X229004038Y-33487500D01*
X228879626Y-33507205D01*
X228755214Y-33526910D01*
X228515616Y-33604760D01*
X228291151Y-33719132D01*
X228087350Y-33867201D01*
X228087345Y-33867205D01*
X227905762Y-34048789D01*
X227904687Y-34047714D01*
X227851820Y-34082225D01*
X227816038Y-34087500D01*
X195813455Y-34087500D01*
X195721300Y-34105831D01*
X195721296Y-34105832D01*
X195716812Y-34106724D01*
X195620164Y-34125949D01*
X195569903Y-34146768D01*
X195562870Y-34149680D01*
X195562863Y-34149683D01*
X195438092Y-34201364D01*
X195438079Y-34201371D01*
X195274219Y-34310859D01*
X195204540Y-34380538D01*
X195134861Y-34450218D01*
X195134858Y-34450221D01*
X188401899Y-41183181D01*
X188340576Y-41216666D01*
X188314218Y-41219500D01*
X161721455Y-41219500D01*
X161628118Y-41238066D01*
X161628110Y-41238067D01*
X161624812Y-41238724D01*
X161528164Y-41257949D01*
X161500278Y-41269500D01*
X161492128Y-41272875D01*
X161492123Y-41272877D01*
X161346088Y-41333366D01*
X161346079Y-41333371D01*
X161182219Y-41442859D01*
X161146914Y-41478165D01*
X161042861Y-41582218D01*
X161042858Y-41582221D01*
X159441899Y-43183181D01*
X159380576Y-43216666D01*
X159354218Y-43219500D01*
X158828507Y-43219500D01*
X158761468Y-43199815D01*
X158740826Y-43183181D01*
X158700863Y-43143218D01*
X158700861Y-43143216D01*
X158521092Y-43012606D01*
X158323105Y-42911727D01*
X158111774Y-42843061D01*
X158111772Y-42843060D01*
X158111771Y-42843060D01*
X157943179Y-42816358D01*
X157892303Y-42808300D01*
X156247697Y-42808300D01*
X156196820Y-42816358D01*
X156028229Y-42843060D01*
X155816892Y-42911728D01*
X155618907Y-43012606D01*
X155538357Y-43071130D01*
X155439139Y-43143216D01*
X155439137Y-43143218D01*
X155439136Y-43143218D01*
X155282018Y-43300336D01*
X155282018Y-43300337D01*
X155282016Y-43300339D01*
X155271347Y-43315024D01*
X155151406Y-43480107D01*
X155050528Y-43678092D01*
X154981860Y-43889429D01*
X154947100Y-44108897D01*
X145500500Y-44108897D01*
X145500500Y-40328034D01*
X147499500Y-40328034D01*
X147499500Y-40671965D01*
X147533210Y-41014249D01*
X147600308Y-41351572D01*
X147700150Y-41680706D01*
X147831770Y-41998464D01*
X147831772Y-41998469D01*
X147993893Y-42301775D01*
X147993904Y-42301793D01*
X148184975Y-42587751D01*
X148184985Y-42587765D01*
X148403176Y-42853632D01*
X148646367Y-43096823D01*
X148646372Y-43096827D01*
X148646373Y-43096828D01*
X148912240Y-43315019D01*
X149198213Y-43506100D01*
X149198222Y-43506105D01*
X149198224Y-43506106D01*
X149501530Y-43668227D01*
X149501532Y-43668227D01*
X149501538Y-43668231D01*
X149819295Y-43799850D01*
X150148422Y-43899690D01*
X150485750Y-43966789D01*
X150828031Y-44000500D01*
X150828034Y-44000500D01*
X151171966Y-44000500D01*
X151171969Y-44000500D01*
X151328325Y-43985100D01*
X151373799Y-43980622D01*
X151439241Y-43974176D01*
X151514250Y-43966789D01*
X151851578Y-43899690D01*
X152180705Y-43799850D01*
X152498462Y-43668231D01*
X152801787Y-43506100D01*
X153087760Y-43315019D01*
X153353627Y-43096828D01*
X153596828Y-42853627D01*
X153815019Y-42587760D01*
X154006100Y-42301787D01*
X154168231Y-41998462D01*
X154299850Y-41680705D01*
X154399690Y-41351578D01*
X154466789Y-41014250D01*
X154500500Y-40671969D01*
X154500500Y-40328031D01*
X154466789Y-39985750D01*
X154399690Y-39648422D01*
X154299850Y-39319295D01*
X154168231Y-39001538D01*
X154006100Y-38698213D01*
X153815019Y-38412240D01*
X153596828Y-38146373D01*
X153596827Y-38146372D01*
X153596823Y-38146367D01*
X153353632Y-37903176D01*
X153244545Y-37813651D01*
X158930875Y-37813651D01*
X186844451Y-37813651D01*
X186844451Y-33995115D01*
X158930875Y-33995115D01*
X158930875Y-37813651D01*
X153244545Y-37813651D01*
X153087765Y-37684985D01*
X153087764Y-37684984D01*
X153087760Y-37684981D01*
X152801787Y-37493900D01*
X152801782Y-37493897D01*
X152801775Y-37493893D01*
X152498469Y-37331772D01*
X152498464Y-37331770D01*
X152180706Y-37200150D01*
X151851572Y-37100308D01*
X151514248Y-37033210D01*
X151514249Y-37033210D01*
X151256456Y-37007821D01*
X151171969Y-36999500D01*
X150828031Y-36999500D01*
X150749966Y-37007188D01*
X150485750Y-37033210D01*
X150148427Y-37100308D01*
X149819293Y-37200150D01*
X149501535Y-37331770D01*
X149501530Y-37331772D01*
X149198224Y-37493893D01*
X149198206Y-37493904D01*
X148912248Y-37684975D01*
X148912234Y-37684985D01*
X148646367Y-37903176D01*
X148403176Y-38146367D01*
X148184985Y-38412234D01*
X148184975Y-38412248D01*
X147993904Y-38698206D01*
X147993893Y-38698224D01*
X147831772Y-39001530D01*
X147831770Y-39001535D01*
X147700150Y-39319293D01*
X147600308Y-39648427D01*
X147533210Y-39985750D01*
X147499500Y-40328034D01*
X145500500Y-40328034D01*
X145500500Y-33124500D01*
X145520185Y-33057461D01*
X145572989Y-33011706D01*
X145624500Y-33000500D01*
X249375500Y-33000500D01*
X249442539Y-33020185D01*
G37*
%TD.AperFunction*%
%TD*%
M02*
