M48
; DRILL file {KiCad 9.0.4} date 2025-11-14T23:52:49-0500
; FORMAT={-:-/ absolute / metric / decimal}
; #@! TF.CreationDate,2025-11-14T23:52:49-05:00
; #@! TF.GenerationSoftware,Kicad,Pcbnew,9.0.4
; #@! TF.FileFunction,Plated,1,2,PTH
FMAT,2
METRIC
; #@! TA.AperFunction,Plated,PTH,ComponentDrill
T1C0.600
; #@! TA.AperFunction,Plated,PTH,ViaDrill
T2C0.800
; #@! TA.AperFunction,Plated,PTH,ComponentDrill
T3C0.800
; #@! TA.AperFunction,Plated,PTH,ComponentDrill
T4C0.840
; #@! TA.AperFunction,Plated,PTH,ComponentDrill
T5C1.000
; #@! TA.AperFunction,Plated,PTH,ComponentDrill
T6C1.320
; #@! TA.AperFunction,Plated,PTH,ComponentDrill
T7C3.200
%
G90
G05
T1
X181.33Y-97.35
X181.33Y-99.35
X185.167Y-77.98
X187.167Y-77.98
T2
X182.86Y-74.61
X187.26Y-74.56
X187.33Y-68.76
X187.81Y-63.56
X192.69Y-35.3
X192.797Y-46.671
X193.34Y-80.44
X194.53Y-68.74
X196.81Y-50.72
X196.85Y-40.11
X197.09Y-63.6
X199.68Y-76.31
X199.72Y-73.86
X199.77Y-69.53
X202.52Y-73.82
X202.6Y-69.61
X204.81Y-76.16
X205.23Y-80.51
X218.39Y-84.44
X218.39Y-91.43
X218.7Y-74.39
X218.77Y-69.75
X229.13Y-35.088
X229.13Y-44.44
X229.6Y-67.77
X230.44Y-86.13
X230.445Y-77.235
X234.9Y-104.79
X235.16Y-87.27
X236.07Y-67.77
X238.39Y-70.18
X244.94Y-70.08
T3
X169.99Y-94.167
X169.99Y-97.967
X199.25Y-54.53
X199.26Y-48.48
X199.26Y-60.58
X199.27Y-42.42
X199.27Y-45.46
X199.27Y-51.52
X199.27Y-57.58
X199.27Y-63.61
X199.27Y-66.63
X206.87Y-54.53
X206.88Y-48.48
X206.88Y-60.58
X206.89Y-42.42
X206.89Y-45.46
X206.89Y-51.52
X206.89Y-57.58
X206.89Y-63.61
X206.89Y-66.63
X207.125Y-71.75
X207.125Y-74.29
X207.125Y-76.83
X207.125Y-79.37
X207.125Y-81.91
X207.125Y-84.45
X207.125Y-86.99
X207.125Y-89.53
X214.745Y-71.75
X214.745Y-74.29
X214.745Y-76.83
X214.745Y-79.37
X214.745Y-81.91
X214.745Y-84.45
X214.745Y-86.99
X214.745Y-89.53
X228.59Y-57.99
X228.59Y-60.99
X228.59Y-64.04
X228.61Y-51.95
X228.61Y-54.96
X236.21Y-57.99
X236.21Y-60.99
X236.21Y-64.04
X236.23Y-51.95
X236.23Y-54.96
T4
X210.24Y-44.75
X210.24Y-47.29
X210.24Y-49.83
X210.24Y-52.37
X210.24Y-54.91
X210.24Y-57.45
X210.24Y-59.99
X210.24Y-62.53
X225.48Y-44.75
X225.48Y-47.29
X225.48Y-49.83
X225.48Y-52.37
X225.48Y-54.91
X225.48Y-57.45
X225.48Y-59.99
X225.48Y-62.53
T5
X152.0Y-49.34
X152.0Y-51.88
X152.0Y-54.42
X152.0Y-56.96
X152.0Y-59.5
X152.0Y-62.04
X157.07Y-44.22
X157.07Y-46.76
X157.07Y-49.3
X157.07Y-51.84
X157.07Y-54.38
X157.07Y-56.92
X157.07Y-59.46
X157.07Y-62.0
X179.93Y-44.22
X179.93Y-46.76
X179.93Y-49.3
X179.93Y-51.84
X179.93Y-54.38
X179.93Y-56.92
X179.93Y-59.46
X179.93Y-62.0
X184.885Y-44.195
X184.885Y-46.735
X184.885Y-49.275
X185.0Y-54.46
X185.0Y-57.0
X185.0Y-59.54
X229.32Y-47.88
X242.17Y-49.84
X242.17Y-52.38
X242.17Y-54.92
X242.17Y-62.01
X242.17Y-64.55
X242.17Y-67.09
T6
X206.785Y-97.715
X211.785Y-97.715
X217.985Y-97.705
X222.985Y-97.705
X239.1Y-74.87
X239.1Y-79.87
X239.1Y-84.87
T7
X151.0Y-40.5
X151.0Y-100.5
X243.0Y-100.5
X243.5Y-40.5
T5
G00X154.19Y-87.0
M15
G01X154.19Y-89.0
M16
G05
G00X156.19Y-92.7
M15
G01X158.19Y-92.7
M16
G05
G00X160.39Y-86.75
M15
G01X160.39Y-89.25
M16
G05
M30
